<svg xmlns="http://www.w3.org/2000/svg" viewBox="0 0 1028.13 818.2"><defs><style>.cls-1{isolation:isolate;}.cls-2{fill:#4a2b59;}.cls-3{fill:#222449;}.cls-4{fill:#333;}.cls-5{fill:none;}.cls-6{fill:#c2ebd7;}.cls-7{opacity:0.5;}.cls-8{fill:#f9d549;}.cls-9{fill:#ffdacf;}.cls-10{fill:#18364b;}.cls-11{fill:#c6cdd4;}.cls-11,.cls-16{mix-blend-mode:multiply;}.cls-12{fill:#544a45;}.cls-13{fill:#b7bbbb;}.cls-14{fill:#6e6e7d;}.cls-15{fill:#fff;}.cls-17{fill:#b5b5b5;}.cls-18{fill:#45474d;}.cls-19{fill:#2e304f;}.cls-20{fill:#19364b;}.cls-21{fill:#7ab3bf;}.cls-22{fill:#334266;}</style></defs><title>alltrips</title><g class="cls-1"><g id="Layer_2" data-name="Layer 2"><g id="Layer_1-2" data-name="Layer 1"><path class="cls-2" d="M501,32.26l-93,.2a84.83,84.83,0,0,0-84.56,84.93l.06,31.72a84.86,84.86,0,0,0,84.94,84.57l93-.2A84.87,84.87,0,0,0,586,148.55L586,116.84A84.86,84.86,0,0,0,501,32.26Zm.4,192.6-93,.19a76.21,76.21,0,0,1-76.29-76L332,117.37a76.21,76.21,0,0,1,76-76.29l93-.2a76.24,76.24,0,0,1,76.29,76l.07,31.71A76.23,76.23,0,0,1,501.42,224.86Z"/><path class="cls-3" d="M618.22,116.78A117.17,117.17,0,0,0,501,0L407.9.2A117.14,117.14,0,0,0,291.14,117.46l.07,31.71A117.15,117.15,0,0,0,408.47,265.94l93-.2A117.15,117.15,0,0,0,618.28,148.48ZM501.48,257.13l-93,.19A108.52,108.52,0,0,1,299.83,149.15l-.07-31.71A108.54,108.54,0,0,1,407.92,8.82L501,8.61h0A108.54,108.54,0,0,1,609.6,116.79l.06,31.7A108.53,108.53,0,0,1,501.48,257.13Z"/><path class="cls-4" d="M501,8.61l-93.05.21A108.54,108.54,0,0,0,299.76,117.44l.07,31.71A108.52,108.52,0,0,0,408.45,257.32l93-.19A108.53,108.53,0,0,0,609.66,148.49l-.06-31.7A108.54,108.54,0,0,0,501,8.61Zm.47,224.87-93,.2a84.86,84.86,0,0,1-84.94-84.57l-.06-31.72A84.83,84.83,0,0,1,408,32.46l93-.2A84.86,84.86,0,0,1,586,116.84l.07,31.71A84.87,84.87,0,0,1,501.44,233.48Z"/><path class="cls-5" d="M501,40.88l-93,.2a76.21,76.21,0,0,0-76,76.29l.06,31.72a76.21,76.21,0,0,0,76.29,76l93-.19a76.23,76.23,0,0,0,76-76.29l-.07-31.71A76.24,76.24,0,0,0,501,40.88Z"/><path class="cls-6" d="M908.2,661.74c.12,53.35-37.63,96.66-84.3,96.77L86.65,760.05C40,760.15,2.05,717,1.94,663.65L1.05,237.24c-.12-53.35,37.63-96.66,84.3-96.76l737.25-1.54c46.66-.1,84.59,43.05,84.71,96.4Z"/><path class="cls-6" d="M0,237.32l0,19.23a110.88,110.88,0,0,0,20.91,2A108,108,0,0,0,128.71,150.31c0-3.32-.18-6.59-.48-9.84l-43.93.09C37.64,140.66-.12,184,0,237.32Z"/><path class="cls-6" d="M906.91,235.43l.05,19.22A108,108,0,0,1,777.83,149c0-3.33.16-6.6.44-9.85L822.2,139C868.87,138.92,906.8,182.08,906.91,235.43Z"/><path class="cls-6" d="M.89,664.55l0-19.25a109.69,109.69,0,0,1,20.89-2.08A108,108,0,0,1,130,751c0,3.31-.15,6.6-.44,9.85l-43.93.09C38.93,761,1,717.88.89,664.55Z"/><path class="cls-6" d="M906.59,662.65l0-19.25A108.08,108.08,0,0,0,777.87,749.63c0,3.32.18,6.61.49,9.87l43.92-.1C869,759.3,906.7,716,906.59,662.65Z"/><rect class="cls-3" x="189.19" y="138.54" width="59.05" height="619.57" transform="translate(-0.98 0.48) rotate(-0.13)"/><polygon class="cls-3" points="734.79 137.46 675.74 137.58 677.04 757.15 736.09 757.02 734.79 137.46"/><g class="cls-7"><path class="cls-8" d="M71.9,191.79a16.61,16.61,0,1,0-16.56,16.65A16.6,16.6,0,0,0,71.9,191.79Z"/></g><g class="cls-7"><path class="cls-8" d="M869.08,191.79a16.61,16.61,0,1,0-16.57,16.65A16.61,16.61,0,0,0,869.08,191.79Z"/></g><g class="cls-7"><path class="cls-8" d="M872.46,708.61a16.61,16.61,0,1,0-16.57,16.65A16.6,16.6,0,0,0,872.46,708.61Z"/></g><g class="cls-7"><path class="cls-8" d="M74,708.56a16.6,16.6,0,1,0-16.51,16.7A16.59,16.59,0,0,0,74,708.56Z"/></g><polygon class="cls-9" points="192.23 152.6 192.21 142.25 191.68 142.25 191.7 152.6 192.23 152.6"/><polygon class="cls-9" points="192.26 165.96 192.24 155.63 191.71 155.63 191.73 165.97 192.26 165.96"/><polygon class="cls-9" points="192.29 179.34 192.26 168.99 191.74 168.99 191.76 179.34 192.29 179.34"/><polygon class="cls-9" points="192.31 192.71 192.29 182.35 191.77 182.36 191.78 192.71 192.31 192.71"/><polygon class="cls-9" points="192.34 206.07 192.32 195.73 191.79 195.73 191.81 206.08 192.34 206.07"/><polygon class="cls-9" points="192.37 219.44 192.35 209.09 191.82 209.09 191.84 219.44 192.37 219.44"/><polygon class="cls-9" points="192.4 232.81 192.38 222.46 191.85 222.46 191.87 232.82 192.4 232.81"/><polygon class="cls-9" points="192.43 246.19 192.41 235.84 191.88 235.84 191.9 246.19 192.43 246.19"/><polygon class="cls-9" points="192.45 259.55 192.43 249.2 191.91 249.2 191.93 259.55 192.45 259.55"/><polygon class="cls-9" points="192.49 272.92 192.47 262.57 191.93 262.57 191.95 272.92 192.49 272.92"/><polygon class="cls-9" points="192.51 286.29 192.49 275.94 191.96 275.94 191.98 286.29 192.51 286.29"/><polygon class="cls-9" points="192.54 299.66 192.52 289.31 191.99 289.31 192.01 299.66 192.54 299.66"/><polygon class="cls-9" points="192.57 313.02 192.55 302.68 192.02 302.68 192.04 313.02 192.57 313.02"/><polygon class="cls-9" points="192.6 326.39 192.57 316.05 192.04 316.05 192.07 326.39 192.6 326.39"/><polygon class="cls-9" points="192.62 339.76 192.6 329.41 192.07 329.41 192.09 339.76 192.62 339.76"/><polygon class="cls-9" points="192.65 353.13 192.63 342.78 192.1 342.78 192.12 353.13 192.65 353.13"/><polygon class="cls-9" points="192.68 366.5 192.66 356.15 192.13 356.15 192.15 366.5 192.68 366.5"/><polygon class="cls-9" points="192.71 379.87 192.69 369.52 192.15 369.52 192.18 379.87 192.71 379.87"/><polygon class="cls-9" points="192.74 393.24 192.71 382.89 192.18 382.89 192.21 393.24 192.74 393.24"/><polygon class="cls-9" points="192.76 406.61 192.74 396.25 192.21 396.26 192.24 406.61 192.76 406.61"/><polygon class="cls-9" points="192.79 419.97 192.77 409.62 192.24 409.62 192.26 419.97 192.79 419.97"/><polygon class="cls-9" points="192.82 433.34 192.8 423 192.27 423 192.29 433.34 192.82 433.34"/><polygon class="cls-9" points="192.85 446.71 192.83 436.36 192.3 436.36 192.32 446.71 192.85 446.71"/><polygon class="cls-9" points="192.88 460.08 192.85 449.73 192.32 449.73 192.35 460.08 192.88 460.08"/><polygon class="cls-9" points="192.91 473.45 192.89 463.1 192.35 463.1 192.38 473.45 192.91 473.45"/><polygon class="cls-9" points="192.93 485.39 192.91 475.04 192.38 475.04 192.4 485.39 192.93 485.39"/><polygon class="cls-9" points="192.96 498.76 192.94 488.41 192.41 488.41 192.43 498.76 192.96 498.76"/><polygon class="cls-9" points="192.98 512.13 192.97 501.78 192.43 501.78 192.45 512.13 192.98 512.13"/><polygon class="cls-9" points="193.01 525.5 192.99 515.14 192.47 515.14 192.49 525.5 193.01 525.5"/><polygon class="cls-9" points="193.04 538.87 193.02 528.51 192.49 528.52 192.51 538.87 193.04 538.87"/><polygon class="cls-9" points="193.07 552.23 193.05 541.88 192.52 541.88 192.54 552.23 193.07 552.23"/><polygon class="cls-9" points="193.1 565.6 193.08 555.25 192.55 555.25 192.57 565.6 193.1 565.6"/><polygon class="cls-9" points="193.13 578.97 193.11 568.62 192.57 568.62 192.6 578.97 193.13 578.97"/><polygon class="cls-9" points="193.16 592.34 193.13 581.99 192.6 581.99 192.62 592.34 193.16 592.34"/><polygon class="cls-9" points="193.18 605.71 193.16 595.35 192.63 595.35 192.65 605.71 193.18 605.71"/><polygon class="cls-9" points="193.21 619.08 193.19 608.73 192.66 608.73 192.68 619.08 193.21 619.08"/><polygon class="cls-9" points="193.24 632.44 193.22 622.09 192.69 622.09 192.71 632.44 193.24 632.44"/><polygon class="cls-9" points="193.27 645.81 193.24 635.46 192.71 635.46 192.74 645.81 193.27 645.81"/><polygon class="cls-9" points="193.3 659.18 193.27 648.83 192.74 648.83 192.76 659.18 193.3 659.18"/><polygon class="cls-9" points="193.32 672.55 193.3 662.2 192.77 662.2 192.79 672.55 193.32 672.55"/><polygon class="cls-9" points="193.35 685.92 193.33 675.57 192.8 675.57 192.82 685.92 193.35 685.92"/><polygon class="cls-9" points="193.38 699.28 193.35 688.93 192.83 688.93 192.85 699.28 193.38 699.28"/><polygon class="cls-9" points="193.41 712.65 193.38 702.31 192.86 702.31 192.88 712.66 193.41 712.65"/><polygon class="cls-9" points="193.44 726.03 193.41 715.67 192.89 715.67 192.91 726.03 193.44 726.03"/><polygon class="cls-9" points="193.46 739.39 193.44 729.04 192.91 729.04 192.93 739.4 193.46 739.39"/><polygon class="cls-9" points="193.49 752.76 193.47 742.41 192.94 742.41 192.96 752.76 193.49 752.76"/><polygon class="cls-9" points="204.59 754.48 194.25 754.5 194.25 755.02 204.6 755 204.59 754.48"/><polygon class="cls-9" points="217.97 754.45 207.62 754.47 207.62 755 217.97 754.98 217.97 754.45"/><polygon class="cls-9" points="231.33 754.42 220.98 754.44 220.98 754.97 231.33 754.95 231.33 754.42"/><polygon class="cls-9" points="244.7 754.39 234.35 754.41 234.35 754.95 244.7 754.92 244.7 754.39"/><polygon class="cls-9" points="245.21 743.51 245.23 753.86 245.76 753.85 245.73 743.51 245.21 743.51"/><polygon class="cls-9" points="245.18 730.14 245.2 740.49 245.73 740.49 245.71 730.14 245.18 730.14"/><polygon class="cls-9" points="245.15 716.77 245.17 727.12 245.7 727.12 245.68 716.77 245.15 716.77"/><polygon class="cls-9" points="245.12 703.4 245.15 713.75 245.68 713.75 245.65 703.4 245.12 703.4"/><polygon class="cls-9" points="245.1 690.03 245.12 700.38 245.64 700.38 245.62 690.03 245.1 690.03"/><polygon class="cls-9" points="245.07 676.67 245.09 687.02 245.62 687.02 245.6 676.67 245.07 676.67"/><polygon class="cls-9" points="245.04 663.3 245.06 673.65 245.59 673.64 245.57 663.29 245.04 663.3"/><polygon class="cls-9" points="245.01 649.93 245.03 660.27 245.56 660.27 245.54 649.93 245.01 649.93"/><polygon class="cls-9" points="244.98 636.56 245 646.91 245.53 646.91 245.51 636.56 244.98 636.56"/><polygon class="cls-9" points="244.96 623.19 244.97 633.54 245.51 633.54 245.49 623.19 244.96 623.19"/><polygon class="cls-9" points="244.93 609.82 244.95 620.17 245.48 620.17 245.45 609.82 244.93 609.82"/><polygon class="cls-9" points="244.9 596.45 244.92 606.8 245.45 606.8 245.43 596.45 244.9 596.45"/><polygon class="cls-9" points="244.87 583.08 244.89 593.43 245.42 593.43 245.4 583.08 244.87 583.08"/><polygon class="cls-9" points="244.84 569.71 244.86 580.07 245.39 580.06 245.37 569.71 244.84 569.71"/><polygon class="cls-9" points="244.81 556.35 244.83 566.7 245.37 566.69 245.34 556.35 244.81 556.35"/><polygon class="cls-9" points="244.78 542.97 244.81 553.33 245.34 553.33 245.31 542.97 244.78 542.97"/><polygon class="cls-9" points="244.76 529.61 244.78 539.96 245.31 539.96 245.29 529.61 244.76 529.61"/><polygon class="cls-9" points="244.73 516.25 244.75 526.59 245.28 526.59 245.26 516.25 244.73 516.25"/><polygon class="cls-9" points="244.7 502.88 244.72 513.22 245.25 513.22 245.23 502.88 244.7 502.88"/><polygon class="cls-9" points="244.67 489.5 244.7 499.86 245.22 499.86 245.2 489.5 244.67 489.5"/><polygon class="cls-9" points="244.64 476.14 244.67 486.49 245.2 486.49 245.18 476.14 244.64 476.14"/><polygon class="cls-9" points="244.62 462.77 244.64 473.12 245.17 473.11 245.15 462.77 244.62 462.77"/><polygon class="cls-9" points="244.59 449.4 244.61 459.75 245.14 459.75 245.12 449.4 244.59 449.4"/><polygon class="cls-9" points="244.56 436.03 244.58 446.38 245.11 446.38 245.09 436.03 244.56 436.03"/><polygon class="cls-9" points="244.53 422.66 244.55 433.01 245.08 433.01 245.06 422.66 244.53 422.66"/><polygon class="cls-9" points="244.51 410.72 244.53 421.07 245.06 421.07 245.04 410.72 244.51 410.72"/><polygon class="cls-9" points="244.48 397.35 244.5 407.7 245.03 407.7 245.01 397.35 244.48 397.35"/><polygon class="cls-9" points="244.45 383.99 244.47 394.33 245 394.33 244.98 383.98 244.45 383.99"/><polygon class="cls-9" points="244.42 370.62 244.45 380.96 244.97 380.96 244.95 370.62 244.42 370.62"/><polygon class="cls-9" points="244.4 357.25 244.42 367.6 244.95 367.59 244.93 357.25 244.4 357.25"/><polygon class="cls-9" points="244.37 343.88 244.39 354.23 244.92 354.23 244.89 343.88 244.37 343.88"/><polygon class="cls-9" points="244.34 330.51 244.36 340.86 244.89 340.86 244.87 330.51 244.34 330.51"/><polygon class="cls-9" points="244.31 317.14 244.33 327.49 244.86 327.49 244.84 317.14 244.31 317.14"/><polygon class="cls-9" points="244.28 303.77 244.31 314.13 244.83 314.13 244.81 303.77 244.28 303.77"/><polygon class="cls-9" points="244.26 290.4 244.28 300.76 244.8 300.76 244.78 290.4 244.26 290.4"/><polygon class="cls-9" points="244.22 277.04 244.25 287.39 244.78 287.39 244.76 277.04 244.22 277.04"/><polygon class="cls-9" points="244.2 263.67 244.22 274.02 244.75 274.02 244.73 263.67 244.2 263.67"/><polygon class="cls-9" points="244.18 250.3 244.19 260.65 244.72 260.65 244.7 250.3 244.18 250.3"/><polygon class="cls-9" points="244.14 236.93 244.16 247.28 244.69 247.28 244.67 236.93 244.14 236.93"/><polygon class="cls-9" points="244.12 223.56 244.13 233.91 244.67 233.91 244.64 223.56 244.12 223.56"/><polygon class="cls-9" points="244.09 210.19 244.11 220.54 244.64 220.54 244.62 210.19 244.09 210.19"/><polygon class="cls-9" points="244.06 196.83 244.08 207.17 244.61 207.17 244.59 196.83 244.06 196.83"/><polygon class="cls-9" points="244.03 183.46 244.06 193.8 244.58 193.8 244.56 183.46 244.03 183.46"/><polygon class="cls-9" points="244.01 170.08 244.03 180.44 244.55 180.44 244.53 170.08 244.01 170.08"/><polygon class="cls-9" points="243.98 156.72 244 167.07 244.53 167.07 244.51 156.71 243.98 156.72"/><polygon class="cls-9" points="243.95 143.35 243.97 153.7 244.5 153.7 244.47 143.35 243.95 143.35"/><polygon class="cls-9" points="232.31 142.16 242.66 142.14 242.66 141.61 232.31 141.64 232.31 142.16"/><polygon class="cls-9" points="218.94 142.19 229.3 142.17 229.3 141.64 218.94 141.67 218.94 142.19"/><polygon class="cls-9" points="205.58 142.22 215.93 142.19 215.93 141.67 205.58 141.69 205.58 142.22"/><polygon class="cls-9" points="192.21 142.25 202.56 142.23 202.55 141.7 192.21 141.72 192.21 142.25"/><path class="cls-10" d="M226.44,339.64a8,8,0,1,0-7.93,8A7.94,7.94,0,0,0,226.44,339.64Z"/><path class="cls-10" d="M226.34,291.93a8,8,0,1,0-7.93,8A8,8,0,0,0,226.34,291.93Z"/><path class="cls-10" d="M226.28,261.27a8,8,0,1,0-7.94,8A8,8,0,0,0,226.28,261.27Z"/><path class="cls-10" d="M226.58,237.93a8,8,0,1,0-7.94,8A8,8,0,0,0,226.58,237.93Z"/><polygon class="cls-9" points="679.42 151.58 679.4 141.23 678.87 141.23 678.89 151.58 679.42 151.58"/><polygon class="cls-9" points="679.45 164.95 679.43 154.6 678.9 154.6 678.92 164.95 679.45 164.95"/><polygon class="cls-9" points="679.48 178.32 679.46 167.97 678.93 167.97 678.95 178.32 679.48 178.32"/><polygon class="cls-9" points="679.51 191.68 679.49 181.34 678.95 181.34 678.98 191.69 679.51 191.68"/><polygon class="cls-9" points="679.53 205.05 679.51 194.7 678.98 194.7 679.01 205.06 679.53 205.05"/><polygon class="cls-9" points="679.56 218.42 679.54 208.07 679.01 208.07 679.03 218.42 679.56 218.42"/><polygon class="cls-9" points="679.59 231.79 679.57 221.44 679.04 221.44 679.06 231.79 679.59 231.79"/><polygon class="cls-9" points="679.62 245.16 679.6 234.81 679.07 234.81 679.09 245.16 679.62 245.16"/><polygon class="cls-9" points="679.65 258.53 679.62 248.18 679.1 248.18 679.12 258.53 679.65 258.53"/><polygon class="cls-9" points="679.68 271.9 679.65 261.55 679.12 261.55 679.14 271.9 679.68 271.9"/><polygon class="cls-9" points="679.7 285.26 679.68 274.92 679.15 274.92 679.17 285.26 679.7 285.26"/><polygon class="cls-9" points="679.73 298.64 679.71 288.28 679.18 288.28 679.2 298.64 679.73 298.64"/><polygon class="cls-9" points="679.76 312 679.74 301.65 679.21 301.65 679.23 312 679.76 312"/><polygon class="cls-9" points="679.79 325.37 679.77 315.02 679.24 315.02 679.26 325.37 679.79 325.37"/><polygon class="cls-9" points="679.82 338.74 679.79 328.39 679.26 328.39 679.29 338.74 679.82 338.74"/><polygon class="cls-9" points="679.84 352.11 679.82 341.76 679.29 341.76 679.32 352.11 679.84 352.11"/><polygon class="cls-9" points="679.87 365.47 679.85 355.13 679.32 355.13 679.34 365.48 679.87 365.47"/><polygon class="cls-9" points="679.9 378.84 679.88 368.5 679.35 368.5 679.37 378.84 679.9 378.84"/><polygon class="cls-9" points="679.93 392.21 679.91 381.86 679.38 381.86 679.4 392.21 679.93 392.21"/><polygon class="cls-9" points="679.95 405.58 679.94 395.23 679.41 395.23 679.43 405.58 679.95 405.58"/><polygon class="cls-9" points="679.98 418.95 679.96 408.6 679.43 408.6 679.46 418.95 679.98 418.95"/><polygon class="cls-9" points="680.01 432.32 679.99 421.97 679.47 421.97 679.48 432.32 680.01 432.32"/><polygon class="cls-9" points="680.04 445.69 680.02 435.34 679.49 435.34 679.51 445.69 680.04 445.69"/><polygon class="cls-9" points="680.07 459.06 680.04 448.71 679.52 448.71 679.54 459.06 680.07 459.06"/><polygon class="cls-9" points="680.1 472.43 680.08 462.08 679.55 462.08 679.57 472.43 680.1 472.43"/><polygon class="cls-9" points="680.12 484.36 680.1 474.02 679.57 474.02 679.6 484.37 680.12 484.36"/><polygon class="cls-9" points="680.15 497.74 680.13 487.39 679.6 487.39 679.62 497.74 680.15 497.74"/><polygon class="cls-9" points="680.18 511.1 680.16 500.75 679.63 500.76 679.65 511.1 680.18 511.1"/><polygon class="cls-9" points="680.21 524.48 680.18 514.12 679.66 514.12 679.68 524.48 680.21 524.48"/><polygon class="cls-9" points="680.24 537.84 680.21 527.49 679.68 527.49 679.7 537.84 680.24 537.84"/><polygon class="cls-9" points="680.26 551.21 680.24 540.85 679.71 540.86 679.73 551.21 680.26 551.21"/><polygon class="cls-9" points="680.29 564.58 680.27 554.23 679.74 554.23 679.76 564.58 680.29 564.58"/><polygon class="cls-9" points="680.32 577.95 680.3 567.6 679.77 567.6 679.79 577.95 680.32 577.95"/><polygon class="cls-9" points="680.35 591.31 680.33 580.97 679.8 580.97 679.82 591.31 680.35 591.31"/><polygon class="cls-9" points="680.38 604.68 680.35 594.33 679.83 594.34 679.85 604.68 680.38 604.68"/><polygon class="cls-9" points="680.4 618.05 680.38 607.7 679.85 607.7 679.87 618.05 680.4 618.05"/><polygon class="cls-9" points="680.43 631.42 680.41 621.07 679.88 621.07 679.9 631.42 680.43 631.42"/><polygon class="cls-9" points="680.46 644.79 680.44 634.44 679.91 634.44 679.93 644.79 680.46 644.79"/><polygon class="cls-9" points="680.49 658.16 680.47 647.81 679.94 647.81 679.96 658.16 680.49 658.16"/><polygon class="cls-9" points="680.51 671.53 680.49 661.17 679.97 661.17 679.99 671.53 680.51 671.53"/><polygon class="cls-9" points="680.54 684.89 680.52 674.55 680 674.55 680.01 684.89 680.54 684.89"/><polygon class="cls-9" points="680.58 698.26 680.55 687.91 680.02 687.91 680.04 698.26 680.58 698.26"/><polygon class="cls-9" points="680.6 711.63 680.58 701.28 680.05 701.28 680.07 711.63 680.6 711.63"/><polygon class="cls-9" points="680.63 725 680.61 714.65 680.08 714.65 680.1 725 680.63 725"/><polygon class="cls-9" points="680.66 738.37 680.64 728.02 680.11 728.02 680.13 738.37 680.66 738.37"/><polygon class="cls-9" points="680.69 751.74 680.66 741.39 680.13 741.39 680.16 751.74 680.69 751.74"/><polygon class="cls-9" points="691.78 753.45 681.44 753.48 681.44 754.01 691.79 753.99 691.78 753.45"/><polygon class="cls-9" points="705.16 753.42 694.81 753.45 694.81 753.98 705.16 753.95 705.16 753.42"/><polygon class="cls-9" points="718.53 753.4 708.17 753.42 708.17 753.95 718.53 753.93 718.53 753.4"/><polygon class="cls-9" points="731.89 753.36 721.54 753.39 721.55 753.92 731.89 753.9 731.89 753.36"/><polygon class="cls-9" points="732.4 742.49 732.42 752.84 732.95 752.83 732.93 742.49 732.4 742.49"/><polygon class="cls-9" points="732.37 729.12 732.39 739.47 732.92 739.47 732.9 729.11 732.37 729.12"/><polygon class="cls-9" points="732.34 715.75 732.37 726.1 732.89 726.1 732.88 715.75 732.34 715.75"/><polygon class="cls-9" points="732.32 702.38 732.34 712.73 732.87 712.73 732.85 702.38 732.32 702.38"/><polygon class="cls-9" points="732.29 689.01 732.31 699.36 732.84 699.36 732.82 689.01 732.29 689.01"/><polygon class="cls-9" points="732.26 675.65 732.28 686 732.81 685.99 732.79 675.64 732.26 675.65"/><polygon class="cls-9" points="732.23 662.27 732.25 672.62 732.78 672.62 732.76 662.27 732.23 662.27"/><polygon class="cls-9" points="732.21 648.9 732.23 659.26 732.75 659.25 732.73 648.9 732.21 648.9"/><polygon class="cls-9" points="732.17 635.54 732.2 645.89 732.73 645.89 732.7 635.54 732.17 635.54"/><polygon class="cls-9" points="732.15 622.17 732.17 632.52 732.7 632.52 732.68 622.17 732.15 622.17"/><polygon class="cls-9" points="732.12 608.8 732.14 619.15 732.67 619.15 732.65 608.79 732.12 608.8"/><polygon class="cls-9" points="732.09 595.43 732.11 605.78 732.64 605.78 732.62 595.43 732.09 595.43"/><polygon class="cls-9" points="732.06 582.06 732.08 592.41 732.61 592.41 732.59 582.06 732.06 582.06"/><polygon class="cls-9" points="732.03 568.69 732.06 579.04 732.59 579.04 732.57 568.69 732.03 568.69"/><polygon class="cls-9" points="732.01 555.33 732.03 565.68 732.56 565.68 732.53 555.33 732.01 555.33"/><polygon class="cls-9" points="731.98 541.96 732 552.31 732.53 552.31 732.51 541.96 731.98 541.96"/><polygon class="cls-9" points="731.95 528.59 731.97 538.93 732.5 538.93 732.48 528.59 731.95 528.59"/><polygon class="cls-9" points="731.92 515.22 731.95 525.57 732.47 525.57 732.45 515.22 731.92 515.22"/><polygon class="cls-9" points="731.9 501.85 731.92 512.2 732.44 512.2 732.42 501.85 731.9 501.85"/><polygon class="cls-9" points="731.87 488.48 731.89 498.83 732.42 498.83 732.4 488.48 731.87 488.48"/><polygon class="cls-9" points="731.84 475.11 731.86 485.46 732.39 485.46 732.37 475.11 731.84 475.11"/><polygon class="cls-9" points="731.81 461.75 731.83 472.09 732.37 472.09 732.34 461.74 731.81 461.75"/><polygon class="cls-9" points="731.78 448.38 731.81 458.73 732.33 458.72 732.31 448.38 731.78 448.38"/><polygon class="cls-9" points="731.76 435.01 731.78 445.36 732.31 445.35 732.29 435 731.76 435.01"/><polygon class="cls-9" points="731.73 421.64 731.75 431.99 732.28 431.99 732.26 421.64 731.73 421.64"/><polygon class="cls-9" points="731.7 409.7 731.73 420.04 732.25 420.04 732.23 409.7 731.7 409.7"/><polygon class="cls-9" points="731.67 396.33 731.69 406.68 732.23 406.68 732.21 396.33 731.67 396.33"/><polygon class="cls-9" points="731.65 382.96 731.67 393.31 732.2 393.31 732.17 382.96 731.65 382.96"/><polygon class="cls-9" points="731.61 369.59 731.64 379.94 732.17 379.94 732.15 369.59 731.61 369.59"/><polygon class="cls-9" points="731.59 356.22 731.61 366.58 732.14 366.58 732.12 356.22 731.59 356.22"/><polygon class="cls-9" points="731.56 342.86 731.59 353.2 732.11 353.2 732.09 342.85 731.56 342.86"/><polygon class="cls-9" points="731.53 329.49 731.56 339.83 732.08 339.83 732.06 329.49 731.53 329.49"/><polygon class="cls-9" points="731.51 316.12 731.53 326.47 732.06 326.47 732.03 316.12 731.51 316.12"/><polygon class="cls-9" points="731.48 302.75 731.5 313.1 732.03 313.1 732.01 302.75 731.48 302.75"/><polygon class="cls-9" points="731.45 289.38 731.47 299.73 732 299.73 731.98 289.38 731.45 289.38"/><polygon class="cls-9" points="731.42 276.02 731.44 286.36 731.97 286.36 731.95 276.02 731.42 276.02"/><polygon class="cls-9" points="731.39 262.64 731.42 273 731.95 272.99 731.92 262.64 731.39 262.64"/><polygon class="cls-9" points="731.37 249.27 731.39 259.63 731.92 259.62 731.9 249.27 731.37 249.27"/><polygon class="cls-9" points="731.34 235.9 731.36 246.26 731.89 246.26 731.87 235.9 731.34 235.9"/><polygon class="cls-9" points="731.31 222.54 731.33 232.89 731.86 232.89 731.84 222.54 731.31 222.54"/><polygon class="cls-9" points="731.28 209.17 731.3 219.51 731.83 219.51 731.81 209.17 731.28 209.17"/><polygon class="cls-9" points="731.25 195.8 731.27 206.15 731.81 206.15 731.78 195.8 731.25 195.8"/><polygon class="cls-9" points="731.23 182.43 731.24 192.78 731.78 192.78 731.75 182.43 731.23 182.43"/><polygon class="cls-9" points="731.2 169.06 731.22 179.41 731.75 179.41 731.73 169.06 731.2 169.06"/><polygon class="cls-9" points="731.17 155.69 731.19 166.04 731.72 166.04 731.7 155.69 731.17 155.69"/><polygon class="cls-9" points="731.14 142.32 731.16 152.68 731.69 152.68 731.67 142.32 731.14 142.32"/><polygon class="cls-9" points="719.51 141.15 729.86 141.12 729.85 140.59 719.51 140.62 719.51 141.15"/><polygon class="cls-9" points="706.14 141.17 716.49 141.15 716.49 140.62 706.14 140.64 706.14 141.17"/><polygon class="cls-9" points="692.77 141.2 703.12 141.18 703.12 140.65 692.77 140.67 692.77 141.2"/><polygon class="cls-9" points="679.4 141.23 689.75 141.21 689.75 140.68 679.4 140.7 679.4 141.23"/><path class="cls-10" d="M713.64,338.62a8,8,0,1,0-7.94,8A8,8,0,0,0,713.64,338.62Z"/><path class="cls-10" d="M713.54,290.91a8,8,0,1,0-7.94,8A8,8,0,0,0,713.54,290.91Z"/><path class="cls-10" d="M713.47,260.25a8,8,0,1,0-7.93,8A7.94,7.94,0,0,0,713.47,260.25Z"/><rect class="cls-11" x="210.75" y="191.82" width="14.6" height="62.03" transform="translate(-5.16 440.5) rotate(-89.9)"/><rect class="cls-11" x="697.88" y="194.45" width="14.6" height="62.03" transform="translate(478.59 930.27) rotate(-89.91)"/><rect class="cls-11" x="698.63" y="288.4" width="14.6" height="62.03" transform="translate(385.38 1024.84) rotate(-89.91)"/><rect class="cls-11" x="211.5" y="293.08" width="14.6" height="60.21" transform="translate(-104.76 541.43) rotate(-89.9)"/><path class="cls-12" d="M253.52,290.33A14.67,14.67,0,0,1,238.9,305l-41,.08a14.67,14.67,0,0,1-14.7-14.61l-.11-52.94a14.67,14.67,0,0,1,14.63-14.69l40.95-.09a14.68,14.68,0,0,1,14.68,14.63Zm15.86-53A30.64,30.64,0,0,0,238.7,206.8l-41,.08a30.66,30.66,0,0,0-30.56,30.68l.11,52.95A30.66,30.66,0,0,0,198,321.07l41-.09a30.66,30.66,0,0,0,30.56-30.69Z"/><path class="cls-13" d="M237.79,208.41l-41,.09a27.21,27.21,0,0,0-27.12,27.24l.11,52.94a27.2,27.2,0,0,0,27.23,27.11l41-.09a27.21,27.21,0,0,0,27.12-27.22l-.12-53a27.21,27.21,0,0,0-27.23-27.12Zm-58.9,80.26-.1-53a18.12,18.12,0,0,1,18.06-18.14l41-.09a18.12,18.12,0,0,1,18.13,18.06l.11,52.94A18.12,18.12,0,0,1,238,306.63l-40.95.08A18.13,18.13,0,0,1,178.89,288.67Z"/><path class="cls-14" d="M225,192.39a6.83,6.83,0,0,0-6.84-6.8h0a6.81,6.81,0,0,0-6.8,6.83l.09,40.89a6.8,6.8,0,0,0,6.83,6.78h0a6.8,6.8,0,0,0,6.8-6.81Z"/><path class="cls-12" d="M740.71,289.31A14.65,14.65,0,0,1,726.1,304l-41,.09a14.65,14.65,0,0,1-14.67-14.62l-.12-52.93A14.69,14.69,0,0,1,685,221.82l41-.07a14.67,14.67,0,0,1,14.69,14.63Zm15.87-53a30.67,30.67,0,0,0-30.69-30.56l-41,.09a30.66,30.66,0,0,0-30.56,30.69l.12,52.93A30.63,30.63,0,0,0,685.16,320l41-.08a30.66,30.66,0,0,0,30.56-30.69Z"/><path class="cls-13" d="M725.83,210.13l-41,.09a27.21,27.21,0,0,0-27.12,27.23l.11,52.95a27.2,27.2,0,0,0,27.23,27.1l41-.09a27.2,27.2,0,0,0,27.12-27.22l-.12-52.94a27.18,27.18,0,0,0-27.22-27.12Zm-58.9,80.25-.11-52.94a18.12,18.12,0,0,1,18.07-18.14l41-.09A18.13,18.13,0,0,1,744,237.27l.11,52.94A18.12,18.12,0,0,1,726,308.34l-40.95.09A18.13,18.13,0,0,1,666.93,290.38Z"/><path class="cls-14" d="M712.2,193.76a6.81,6.81,0,0,0-6.83-6.8h0a6.83,6.83,0,0,0-6.81,6.83l.1,40.89a6.78,6.78,0,0,0,6.82,6.78h0a6.79,6.79,0,0,0,6.8-6.82Z"/><path class="cls-5" d="M640.37,195.05a3.54,3.54,0,0,1-4.63-1.89,16.25,16.25,0,0,1-.55-1.56,13.15,13.15,0,0,0-3.33.72,13.32,13.32,0,0,0-4.88,3.06l.42.48a3.52,3.52,0,0,1-4,5.58,13.54,13.54,0,1,0,19-8.53A3.52,3.52,0,0,1,640.37,195.05Z"/><path class="cls-15" d="M219.3,197.18a2.54,2.54,0,0,0-2.36-2.69h0a2.54,2.54,0,0,0-2.35,2.69v31.43a2.54,2.54,0,0,0,2.35,2.69h0a2.54,2.54,0,0,0,2.36-2.69Z"/><g class="cls-16"><path class="cls-17" d="M792.74,408.53l-57.9-177.28.06,0-84-46.14a20.15,20.15,0,0,0-3.25-1.42c-.23-2.61-.47-5.47-.7-8.43-.88-10.77-2-23.43-4.15-36H637c2,12.32,3,25.15,3.89,36.53.2,2.55.4,4.86.57,7a18.57,18.57,0,0,0-14.18,6.73C615.63,174.1,603,163.3,593.43,139.24c-6.33.42-9.71-.9-5.49,5.85,9.37,28.32,23.55,35.26,35.86,50.28L584,280.44l-.22.08,57.92,177.32c4.87,14.91,20.08,23.31,34,18.76l100.65-32.87C790.28,439.19,797.6,423.42,792.74,408.53Z"/></g><path class="cls-8" d="M635.07,166.83a19.24,19.24,0,0,0-26.83,9.23L568,265.88l-.23.08,62.38,181.25c5.23,15.24,21,23.62,35.23,18.73l102.88-35.4c14.21-4.89,21.48-21.21,16.24-36.44L722.11,212.89l.07,0Zm-2.62,36.24a11.83,11.83,0,1,1,7.34-15A11.84,11.84,0,0,1,632.45,203.07Z"/><path class="cls-8" d="M615.47,171.62a16,16,0,0,1,5.21-3l-.15-.44a16.2,16.2,0,0,0-5.36,3.11Z"/><path class="cls-8" d="M611,177.94a18.32,18.32,0,0,1,3.25-5.09l-.35-.32a19.08,19.08,0,0,0-3.33,5.22Z"/><polygon class="cls-8" points="607.7 185.2 610.22 179.58 609.79 179.39 607.27 185.01 607.7 185.2"/><polygon class="cls-8" points="604.45 192.45 606.96 186.83 606.53 186.64 604.01 192.26 604.45 192.45"/><rect class="cls-8" x="599.16" y="196.56" width="6.15" height="0.47" transform="translate(175.96 665.53) rotate(-65.81)"/><polygon class="cls-8" points="597.94 206.96 600.46 201.34 600.03 201.15 597.51 206.76 597.94 206.96"/><polygon class="cls-8" points="594.69 214.2 597.2 208.59 596.78 208.4 594.26 214.01 594.69 214.2"/><polygon class="cls-8" points="591.43 221.46 593.96 215.84 593.52 215.66 591.01 221.26 591.43 221.46"/><polygon class="cls-8" points="588.18 228.71 590.7 223.1 590.27 222.9 587.75 228.52 588.18 228.71"/><polygon class="cls-8" points="584.93 235.96 587.45 230.35 587.02 230.15 584.5 235.77 584.93 235.96"/><polygon class="cls-8" points="581.67 243.22 584.19 237.6 583.76 237.41 581.25 243.02 581.67 243.22"/><polygon class="cls-8" points="578.42 250.47 580.94 244.85 580.51 244.66 577.99 250.28 578.42 250.47"/><polygon class="cls-8" points="575.17 257.72 577.69 252.1 577.26 251.91 574.74 257.53 575.17 257.72"/><polygon class="cls-8" points="571.92 264.97 574.43 259.35 574.01 259.17 571.49 264.78 571.92 264.97"/><polygon class="cls-8" points="573.32 272.26 571.33 266.45 570.88 266.6 572.88 272.41 573.32 272.26"/><rect class="cls-8" x="574.46" y="273.87" width="0.47" height="6.15" transform="translate(-58.82 201.89) rotate(-18.97)"/><polygon class="cls-8" points="578.5 287.3 576.5 281.47 576.05 281.63 578.06 287.44 578.5 287.3"/><polygon class="cls-8" points="581.09 294.81 579.09 288.99 578.64 289.15 580.64 294.96 581.09 294.81"/><polygon class="cls-8" points="583.67 302.33 581.67 296.5 581.23 296.66 583.23 302.48 583.67 302.33"/><polygon class="cls-8" points="586.26 309.84 584.25 304.02 583.81 304.17 585.81 310 586.26 309.84"/><polygon class="cls-8" points="588.85 317.35 586.84 311.54 586.4 311.69 588.4 317.51 588.85 317.35"/><polygon class="cls-8" points="591.43 324.87 589.43 319.06 588.99 319.21 590.99 325.02 591.43 324.87"/><rect class="cls-8" x="592.56" y="326.48" width="0.47" height="6.15" transform="matrix(0.95, -0.33, 0.33, 0.95, -74.99, 210.9)"/><rect class="cls-8" x="595.15" y="334" width="0.47" height="6.15" transform="translate(-77.37 212.55) rotate(-19.03)"/><rect class="cls-8" x="597.73" y="341.51" width="0.47" height="6.15" transform="translate(-79.51 212.93) rotate(-18.96)"/><polygon class="cls-8" points="601.5 354.13 599.5 348.31 599.06 348.47 601.05 354.29 601.5 354.13"/><polygon class="cls-8" points="604.09 361.65 602.08 355.83 601.64 355.98 603.64 361.8 604.09 361.65"/><polygon class="cls-8" points="606.67 369.17 604.67 363.35 604.23 363.5 606.22 369.32 606.67 369.17"/><rect class="cls-8" x="607.8" y="370.77" width="0.47" height="6.15" transform="translate(-88.54 218.13) rotate(-18.98)"/><rect class="cls-8" x="610.39" y="378.29" width="0.47" height="6.15" transform="translate(-90.86 219.44) rotate(-18.99)"/><polygon class="cls-8" points="614.43 391.71 612.43 385.89 611.99 386.05 613.99 391.87 614.43 391.71"/><polygon class="cls-8" points="617.02 399.23 615.02 393.41 614.58 393.57 616.57 399.38 617.02 399.23"/><polygon class="cls-8" points="619.6 406.75 617.6 400.93 617.16 401.08 619.16 406.89 619.6 406.75"/><polygon class="cls-8" points="622.19 414.26 620.19 408.44 619.74 408.59 621.74 414.42 622.19 414.26"/><rect class="cls-8" x="623.32" y="415.87" width="0.47" height="6.15" transform="translate(-102.47 226) rotate(-19.01)"/><polygon class="cls-8" points="627.36 429.29 625.36 423.47 624.91 423.62 626.92 429.44 627.36 429.29"/><polygon class="cls-8" points="629.95 436.81 627.95 430.99 627.5 431.14 629.5 436.96 629.95 436.81"/><rect class="cls-8" x="631.08" y="438.42" width="0.47" height="6.15" transform="matrix(0.95, -0.33, 0.33, 0.95, -109.3, 229.45)"/><path class="cls-8" d="M635.71,451.53a30.33,30.33,0,0,1-2.59-5.5l-.44.14a29.87,29.87,0,0,0,2.63,5.61Z"/><path class="cls-8" d="M640.7,457.59a28.12,28.12,0,0,1-4-4.56l-.39.26a28.39,28.39,0,0,0,4.1,4.65Z"/><path class="cls-8" d="M647.25,461.91a25.45,25.45,0,0,1-5.19-3.16l-.3.37a26.25,26.25,0,0,0,5.29,3.22Z"/><path class="cls-8" d="M654.8,464a23.77,23.77,0,0,1-5.92-1.36l-.16.45a24.5,24.5,0,0,0,6,1.37Z"/><path class="cls-8" d="M662.6,463.36a21.5,21.5,0,0,1-6,.7v.46a21.3,21.3,0,0,0,6.15-.71Z"/><polygon class="cls-8" points="670.13 460.86 664.31 462.87 664.46 463.31 670.28 461.31 670.13 460.86"/><polygon class="cls-8" points="677.64 458.28 671.82 460.28 671.98 460.73 677.8 458.72 677.64 458.28"/><polygon class="cls-8" points="685.16 455.69 679.34 457.7 679.49 458.14 685.32 456.13 685.16 455.69"/><polygon class="cls-8" points="692.67 453.11 686.86 455.1 687 455.55 692.83 453.55 692.67 453.11"/><polygon class="cls-8" points="700.19 450.52 694.37 452.52 694.52 452.96 700.35 450.96 700.19 450.52"/><rect class="cls-8" x="701.8" y="448.92" width="6.16" height="0.47" transform="translate(-108.04 254.84) rotate(-19.06)"/><polygon class="cls-8" points="715.22 445.35 709.4 447.35 709.56 447.79 715.38 445.79 715.22 445.35"/><polygon class="cls-8" points="721.93 443.04 716.12 445.04 716.27 445.48 722.09 443.48 721.93 443.04"/><rect class="cls-8" x="723.54" y="441.44" width="6.15" height="0.47" transform="translate(-104.3 261.04) rotate(-19.03)"/><rect class="cls-8" x="731.06" y="438.85" width="6.15" height="0.47" transform="translate(-102.96 262.96) rotate(-19)"/><rect class="cls-8" x="738.57" y="436.27" width="6.15" height="0.47" transform="translate(-101.7 265.23) rotate(-19)"/><rect class="cls-8" x="746.09" y="433.68" width="6.15" height="0.47" transform="translate(-100.32 266.84) rotate(-18.95)"/><rect class="cls-8" x="753.6" y="431.09" width="6.16" height="0.47" transform="translate(-99.14 269.53) rotate(-18.98)"/><polygon class="cls-8" points="767.03 427.52 761.21 429.52 761.36 429.96 767.18 427.96 767.03 427.52"/><path class="cls-8" d="M773.88,423.74a21.64,21.64,0,0,1-5.2,3.12l.19.43a21.79,21.79,0,0,0,5.3-3.19Z"/><path class="cls-8" d="M779.07,417.88a24.06,24.06,0,0,1-3.85,4.69l.32.35a24.47,24.47,0,0,0,3.93-4.8Z"/><path class="cls-8" d="M782.1,410.64a26.76,26.76,0,0,1-2.15,5.69l.41.22a27.4,27.4,0,0,0,2.2-5.79Z"/><path class="cls-8" d="M782.85,402.83a25.19,25.19,0,0,1-.4,6.07l.47.09a26.13,26.13,0,0,0,.4-6.18Z"/><path class="cls-8" d="M781.38,395.11a28.93,28.93,0,0,1,1.33,5.95l.47-.06a30,30,0,0,0-1.35-6Z"/><polygon class="cls-8" points="778.79 387.6 780.8 393.42 781.25 393.27 779.24 387.44 778.79 387.6"/><polygon class="cls-8" points="776.21 380.08 778.21 385.9 778.65 385.75 776.65 379.93 776.21 380.08"/><polygon class="cls-8" points="773.63 372.57 775.63 378.38 776.07 378.24 774.07 372.42 773.63 372.57"/><polygon class="cls-8" points="771.03 365.05 773.04 370.87 773.48 370.71 771.49 364.9 771.03 365.05"/><rect class="cls-8" x="769.44" y="357.29" width="0.47" height="6.15" transform="translate(-75.41 270.44) rotate(-19.02)"/><polygon class="cls-8" points="765.87 350.02 767.87 355.84 768.31 355.69 766.31 349.87 765.87 350.02"/><rect class="cls-8" x="764.27" y="342.26" width="0.47" height="6.15" transform="translate(-70.74 267.27) rotate(-18.97)"/><polygon class="cls-8" points="760.69 334.98 762.7 340.81 763.14 340.65 761.14 334.84 760.69 334.98"/><polygon class="cls-8" points="758.11 327.47 760.11 333.29 760.55 333.13 758.55 327.32 758.11 327.47"/><polygon class="cls-8" points="755.52 319.96 757.52 325.77 757.96 325.62 755.96 319.8 755.52 319.96"/><polygon class="cls-8" points="752.93 312.44 754.94 318.26 755.38 318.11 753.38 312.29 752.93 312.44"/><polygon class="cls-8" points="750.35 304.93 752.35 310.74 752.79 310.59 750.79 304.77 750.35 304.93"/><rect class="cls-8" x="748.75" y="297.16" width="0.47" height="6.15" transform="translate(-56.95 260.42) rotate(-19.02)"/><polygon class="cls-8" points="745.46 290.7 747.46 296.52 747.9 296.36 745.9 290.54 745.46 290.7"/><polygon class="cls-8" points="742.87 283.18 744.87 289 745.31 288.85 743.31 283.03 742.87 283.18"/><rect class="cls-8" x="741.27" y="275.42" width="0.47" height="6.15" transform="translate(-50.28 256.76) rotate(-19.01)"/><polygon class="cls-8" points="737.69 268.15 739.7 273.96 740.14 273.82 738.14 268 737.69 268.15"/><polygon class="cls-8" points="735.11 260.63 737.11 266.45 737.56 266.3 735.55 260.48 735.11 260.63"/><polygon class="cls-8" points="732.52 253.12 734.52 258.94 734.97 258.78 732.96 252.97 732.52 253.12"/><polygon class="cls-8" points="729.93 245.6 731.94 251.42 732.38 251.27 730.38 245.45 729.93 245.6"/><rect class="cls-8" x="728.34" y="237.84" width="0.47" height="6.15" transform="translate(-38.75 249.92) rotate(-18.97)"/><polygon class="cls-8" points="724.76 230.57 726.77 236.38 727.21 236.24 725.21 230.42 724.76 230.57"/><rect class="cls-8" x="723.16" y="222.81" width="0.47" height="6.15" transform="translate(-34.15 247.2) rotate(-18.95)"/><rect class="cls-8" x="720.58" y="215.29" width="0.47" height="6.15" transform="translate(-31.81 247.01) rotate(-19.03)"/><rect class="cls-8" x="715.58" y="209.84" width="0.47" height="6.15" transform="translate(193.11 746.3) rotate(-62.14)"/><polygon class="cls-8" points="705.96 207.97 711.41 210.84 711.62 210.43 706.18 207.56 705.96 207.97"/><polygon class="cls-8" points="698.93 204.25 704.38 207.13 704.6 206.71 699.15 203.84 698.93 204.25"/><polygon class="cls-8" points="691.91 200.54 697.35 203.42 697.57 203 692.13 200.12 691.91 200.54"/><polygon class="cls-8" points="684.89 196.83 690.32 199.7 690.54 199.28 685.11 196.41 684.89 196.83"/><polygon class="cls-8" points="677.86 193.11 683.3 195.99 683.52 195.57 678.08 192.69 677.86 193.11"/><polygon class="cls-8" points="670.83 189.4 676.27 192.27 676.49 191.85 671.05 188.98 670.83 189.4"/><rect class="cls-8" x="666.4" y="183.83" width="0.47" height="6.16" transform="translate(190.17 689.22) rotate(-62.18)"/><polygon class="cls-8" points="656.78 181.96 662.22 184.84 662.44 184.43 657 181.54 656.78 181.96"/><rect class="cls-8" x="652.34" y="176.4" width="0.47" height="6.15" transform="translate(189.07 672.67) rotate(-62.15)"/><polygon class="cls-8" points="642.72 174.53 648.16 177.41 648.38 177 642.94 174.12 642.72 174.53"/><polygon class="cls-8" points="635.7 170.82 641.14 173.69 641.36 173.28 635.91 170.4 635.7 170.82"/><path class="cls-8" d="M628.41,168a18.23,18.23,0,0,1,5.7,2l.22-.42a18.89,18.89,0,0,0-5.85-2.06Z"/><path class="cls-8" d="M620.68,168.6a16.15,16.15,0,0,1,6-.83l0-.46a16.23,16.23,0,0,0-6.14.85Z"/><path class="cls-18" d="M623.46,187.41c-1.12-1.29-4.78-5.52-9.78-11.72C594.8,152.32,556.8,101,563.58,74.56c-.36-1-3.23-5.24-4.44-7.21-13.53,36.08,31.39,92,51.07,114.67,4.95,5.7,8.36,9.31,8.95,10a3,3,0,0,0,1.12.8,3.12,3.12,0,0,0,3.56-4.95S623.68,187.65,623.46,187.41ZM637,183c-.82-1.94-1.57-7.17-2.35-13.9-.32-2.71-.65-5.67-1-8.75-2.7-24.73-2.14-65-21.36-80.93l2.54,11.61c8.79,22.32,10.27,48.71,12.6,70,.29,2.65.55,5.05.8,7.24.89,7.79,1.58,12.78,2.48,15.78a14.64,14.64,0,0,0,.49,1.39A3.14,3.14,0,0,0,637,183Z"/><path class="cls-19" d="M862.32,373.26l-220.6-50.91L559,680.61l220.59,50.92c27,6.24,53.41-7.89,58.88-31.56l62.9-272.55C906.87,403.75,889.36,379.51,862.32,373.26Z"/><path class="cls-8" d="M932.3,778.78C926,806.27,898.06,823.3,870,816.83L711.74,780.3c-28.06-6.47-45.66-34-39.32-61.5L767,309.14c6.34-27.49,34.23-44.52,62.29-38.05l158.27,36.53c28.05,6.48,45.66,34,39.31,61.5Z"/><rect class="cls-15" x="694.75" y="451.86" width="302.74" height="230.66" transform="translate(103.18 1264.09) rotate(-77)"/><path class="cls-15" d="M798.63,746.9c-.07-5.93-.24-19.48-.47-25.64a4.46,4.46,0,0,1,5.77,2.5l9.47,24a4.41,4.41,0,0,1,.32,1.66L831,752.24c4.93.93,8.32,4.87,7.58,8.81s-5.34,6.37-10.27,5.45l-17.08-3.64a4.41,4.41,0,0,1-1,1.57L792.69,783.3a4.46,4.46,0,0,1-6.3.22c2.5-5.7,7.66-18.41,9.86-23.84l-19.07-4.06a15.78,15.78,0,0,1-2.3-.6l-7.39,5.88-3.65-.69,5.35-12.11-.51-13.5,3.65.69,4.4,8.15a15.79,15.79,0,0,1,2.69.29Z"/><rect class="cls-15" x="770.3" y="358.01" width="2.16" height="24.83" transform="translate(236.98 1038.74) rotate(-77)"/><rect class="cls-15" x="798.85" y="364.61" width="2.16" height="24.84" transform="translate(250.94 1070.32) rotate(-76.86)"/><rect class="cls-15" x="827.4" y="371.21" width="2.16" height="24.83" transform="translate(269.29 1105.34) rotate(-77.08)"/><rect class="cls-15" x="855.96" y="377.82" width="2.16" height="24.83" transform="translate(283.16 1136.87) rotate(-76.93)"/><rect class="cls-15" x="884.51" y="384.42" width="2.16" height="24.84" transform="translate(299.76 1170.51) rotate(-77)"/><rect class="cls-15" x="913.06" y="391.03" width="2.15" height="24.83" transform="translate(315.45 1203.45) rotate(-77)"/><rect class="cls-15" x="941.61" y="397.64" width="2.16" height="24.83" transform="translate(328.04 1234.08) rotate(-76.79)"/><rect class="cls-15" x="970.17" y="404.24" width="2.16" height="24.84" transform="translate(344.72 1267.77) rotate(-76.86)"/><polygon class="cls-15" points="1012.14 425.02 1011.66 427.11 987.46 421.52 987.94 419.42 1012.14 425.02"/><rect class="cls-20" x="758.88" y="574.65" width="4.81" height="53.28" transform="translate(3.88 1207.44) rotate(-76.97)"/><polygon class="cls-20" points="789.35 598.18 788.8 600.53 736.9 588.51 737.44 586.17 789.35 598.18"/><rect class="cls-20" x="761.98" y="558.04" width="6.28" height="53.28" transform="translate(22.83 1198.09) rotate(-76.96)"/><rect class="cls-20" x="764.99" y="548.22" width="4.82" height="53.28" transform="translate(35.04 1193.75) rotate(-77.04)"/><rect class="cls-20" x="766.39" y="538.23" width="6.63" height="53.28" transform="translate(46.22 1187.83) rotate(-77)"/><rect class="cls-20" x="770.28" y="529.07" width="3.1" height="53.28" transform="translate(57.88 1184.04) rotate(-77.1)"/><polygon class="cls-20" points="799.69 553.43 799.16 555.79 747.25 543.78 747.79 541.44 799.69 553.43"/><polygon class="cls-20" points="801.6 545.2 800.72 549.02 748.8 537.01 749.7 533.18 801.6 545.2"/><polygon class="cls-20" points="803.43 537.29 802.62 540.77 750.72 528.76 751.52 525.29 803.43 537.29"/><polygon class="cls-20" points="805.95 526.42 804.45 532.87 752.54 520.88 754.04 514.42 805.95 526.42"/><rect class="cls-20" x="778.98" y="487.75" width="4.83" height="53.28" transform="translate(104.45 1160.09) rotate(-77)"/><polygon class="cls-20" points="809.45 511.28 808.91 513.63 757 501.62 757.54 499.28 809.45 511.28"/><rect class="cls-20" x="782.08" y="471.16" width="6.29" height="53.28" transform="translate(123.04 1150.4) rotate(-76.96)"/><polygon class="cls-20" points="813.99 491.63 812.91 496.34 761 484.32 762.09 479.62 813.99 491.63"/><rect class="cls-20" x="786.5" y="451.33" width="6.63" height="53.29" transform="translate(145.67 1139.29) rotate(-76.93)"/><rect class="cls-20" x="790.38" y="442.18" width="3.1" height="53.28" transform="translate(157.03 1135.04) rotate(-77)"/><polygon class="cls-20" points="819.8 466.54 819.25 468.9 767.35 456.89 767.9 454.53 819.8 466.54"/><polygon class="cls-20" points="821.71 458.29 820.83 462.14 768.91 450.12 769.8 446.29 821.71 458.29"/><polygon class="cls-20" points="823.53 450.4 822.73 453.88 770.82 441.87 771.63 438.4 823.53 450.4"/><polygon class="cls-20" points="826.05 439.52 824.55 445.98 772.65 433.98 774.14 427.52 826.05 439.52"/><rect class="cls-3" x="718.15" y="553.57" width="257.7" height="3.6" transform="translate(115.38 1255.79) rotate(-77)"/><rect class="cls-3" x="748.41" y="558.7" width="257.69" height="3.6" transform="translate(133.83 1289.24) rotate(-77)"/><rect class="cls-3" x="784.87" y="568.97" width="257.7" height="3.6" transform="translate(152.09 1332.74) rotate(-77)"/><path class="cls-21" d="M856.74,372l-215-49.63L560.43,674.57l215,49.63c26.37,6.08,52.1-7.85,57.47-31.11l61.84-267.94C900.14,401.89,883.11,378.1,856.74,372Z"/><path class="cls-3" d="M859.86,359.43,644.63,309.76,561.94,668l215.23,49.67c26.4,6.09,52.23-8.15,57.69-31.82l62.91-272.56C903.23,389.65,886.25,365.52,859.86,359.43Z"/><path class="cls-8" d="M810.46,426.32c-1-1.77-2.07-3.48-3.2-5.16a71.72,71.72,0,0,0-96.8-21.06c-1.73,1.06-3.4,2.18-5,3.37a71.68,71.68,0,0,0-20.95,91.89c.94,1.75,1.95,3.47,3,5.13a71.67,71.67,0,0,0,94.37,24.21c1.75-.94,3.47-2,5.13-3a71.72,71.72,0,0,0,23.46-95.34ZM766,397.89a66,66,0,0,1,37.3,27.71,55.08,55.08,0,0,1-47.14,15Zm-11.14,48.28a60.88,60.88,0,0,0,51.42-15.47A65.93,65.93,0,0,1,812.92,473l-61-14.08Zm5.55-49.6-9.88,42.84a55.33,55.33,0,0,1-38.29-33.64A65.93,65.93,0,0,1,760.41,396.57Zm-53,12.59A61.21,61.21,0,0,0,749.23,445l-2.92,12.64-62.1-14.34A65.84,65.84,0,0,1,707.39,409.16Zm-18.54,82.19a65.81,65.81,0,0,1-6-42.43L745,463.26l-3.66,15.88A61.31,61.31,0,0,0,688.85,491.35Zm51.21-6.6-9.36,40.58a65.93,65.93,0,0,1-39-28.88A55.44,55.44,0,0,1,740.06,484.75Zm-3.76,41.84,9.31-40.32a55.16,55.16,0,0,1,34.54,32.84A65.86,65.86,0,0,1,736.3,526.59ZM785.11,516a60.88,60.88,0,0,0-38.21-35.36l3.72-16.11,61,14.09A65.88,65.88,0,0,1,785.11,516Z"/><rect class="cls-22" x="556.92" y="672.18" width="12.41" height="4.66" transform="translate(-220.74 1071.53) rotate(-77)"/><path class="cls-8" d="M622.14,602.24l-4.51-1-1.89,8.29-4.61-1,5.74-25.24,7.14,1.62a34.2,34.2,0,0,1,4.71,1.4,8.3,8.3,0,0,1,3.1,2,5.52,5.52,0,0,1,1.45,2.9,10.84,10.84,0,0,1-.26,4.21,10.28,10.28,0,0,1-1.82,4.16,7.87,7.87,0,0,1-2.75,2.26,8,8,0,0,1-3.2.79A12.4,12.4,0,0,1,622.14,602.24ZM624.4,589l-3.79-.86-2,8.76,3.89.89a5.42,5.42,0,0,0,3.9-.2,4.82,4.82,0,0,0,1.9-3.3,6.78,6.78,0,0,0,.2-2,2.81,2.81,0,0,0-.49-1.48,3.58,3.58,0,0,0-1.33-1.08A10,10,0,0,0,624.4,589Z"/><path class="cls-8" d="M654.48,618.32l-4.8-1.09-.78-6.59-8.4-1.91-3.55,5.6-4.8-1.09L646.88,590l4.36,1Zm-6.15-12.51-1-8-4.28,6.8Z"/><path class="cls-8" d="M668.17,622a21.54,21.54,0,0,1-4.81-1.66,11.87,11.87,0,0,1-3.13-2.08l1.74-5.14a9.29,9.29,0,0,0,2.79,2.65,13.51,13.51,0,0,0,4.52,1.86c3,.68,4.72.11,5.14-1.73a2.89,2.89,0,0,0,0-1.52,4.08,4.08,0,0,0-.73-1.32,6.42,6.42,0,0,0-1.11-1.1,12.34,12.34,0,0,0-1.27-.86l-3.11-2-1.31-1a8.36,8.36,0,0,1-2.81-3,6.22,6.22,0,0,1-.33-3.87,7.61,7.61,0,0,1,1.18-2.67,6.89,6.89,0,0,1,2.21-2,8.42,8.42,0,0,1,3.24-1.06,11.78,11.78,0,0,1,4.22.28,17.26,17.26,0,0,1,2.36.72c.77.31,1.5.63,2.18,1a14.42,14.42,0,0,1,1.81,1.07,11,11,0,0,1,1.25,1l-1.55,4.61a16.31,16.31,0,0,0-6.87-4,11,11,0,0,0-1.8-.26,5.22,5.22,0,0,0-1.57.14,3,3,0,0,0-1.2.6,2,2,0,0,0-.66,1.14,2.24,2.24,0,0,0,.12,1.56,3.84,3.84,0,0,0,1.13,1.22,19,19,0,0,0,2,1.32c.83.48,1.78,1.08,2.85,1.81l1.78,1.2a8.1,8.1,0,0,1,1.39,1.19,7.5,7.5,0,0,1,1.23,1.68,7.21,7.21,0,0,1,.75,2.12,6.11,6.11,0,0,1-.07,2.51,12.62,12.62,0,0,1-.86,2.42,5.76,5.76,0,0,1-1.87,2.21,7.59,7.59,0,0,1-3.4,1.28A14.84,14.84,0,0,1,668.17,622Z"/><path class="cls-8" d="M692.7,627.56a21.63,21.63,0,0,1-4.82-1.67,11.8,11.8,0,0,1-3.13-2.08l1.74-5.14a9.53,9.53,0,0,0,2.79,2.65,13.48,13.48,0,0,0,4.53,1.86c3,.69,4.72.11,5.13-1.73a2.75,2.75,0,0,0-.05-1.51,4.3,4.3,0,0,0-.72-1.33,6.42,6.42,0,0,0-1.12-1.09,11.75,11.75,0,0,0-1.26-.86l-3.12-2-1.3-.94a8.35,8.35,0,0,1-2.81-3,6.3,6.3,0,0,1-.34-3.87,7.71,7.71,0,0,1,1.18-2.67,7,7,0,0,1,2.21-2,8.54,8.54,0,0,1,3.24-1.07,11.78,11.78,0,0,1,4.22.28,15.66,15.66,0,0,1,2.36.73,22.19,22.19,0,0,1,2.19,1,13.59,13.59,0,0,1,1.8,1.07,12.23,12.23,0,0,1,1.25,1l-1.54,4.62a16.43,16.43,0,0,0-6.88-4,10.7,10.7,0,0,0-1.8-.26,5.25,5.25,0,0,0-1.57.14,2.85,2.85,0,0,0-1.19.6,2,2,0,0,0-.66,1.14,2.18,2.18,0,0,0,.12,1.56,3.82,3.82,0,0,0,1.12,1.23,21.46,21.46,0,0,0,2,1.31c.83.48,1.78,1.08,2.86,1.81l1.77,1.2a8.61,8.61,0,0,1,1.4,1.19,8.08,8.08,0,0,1,1.23,1.68,7.27,7.27,0,0,1,.75,2.13,6.08,6.08,0,0,1-.08,2.5,12.87,12.87,0,0,1-.85,2.43,5.91,5.91,0,0,1-1.87,2.21A7.68,7.68,0,0,1,698.1,628,15,15,0,0,1,692.7,627.56Z"/><path class="cls-8" d="M721,624.75l-4.51-1-1.89,8.3L710,631l5.74-25.25,7.14,1.63a32.94,32.94,0,0,1,4.71,1.39,8.61,8.61,0,0,1,3.11,2,5.58,5.58,0,0,1,1.44,2.91,10.84,10.84,0,0,1-.26,4.21,10.1,10.1,0,0,1-1.82,4.15,7.87,7.87,0,0,1-2.75,2.26,8,8,0,0,1-3.19.79A12,12,0,0,1,721,624.75Zm2.26-13.26-3.79-.86-2,8.77,3.89.88a5.42,5.42,0,0,0,3.9-.19,4.87,4.87,0,0,0,1.91-3.3,7.64,7.64,0,0,0,.2-2,2.94,2.94,0,0,0-.5-1.48,3.58,3.58,0,0,0-1.33-1.08A10.33,10.33,0,0,0,723.29,611.49Z"/><path class="cls-8" d="M755.7,638.1a12.17,12.17,0,0,1-9.77,1.58,13.6,13.6,0,0,1-4.78-2.08,11.59,11.59,0,0,1-3.34-3.57,12.38,12.38,0,0,1-1.64-4.73,15.56,15.56,0,0,1,.31-5.59,15.2,15.2,0,0,1,2.16-5.16,13,13,0,0,1,3.52-3.56,11.59,11.59,0,0,1,4.54-1.77,14,14,0,0,1,10,2.29A11.85,11.85,0,0,1,760,619.1a12.38,12.38,0,0,1,1.64,4.73,15.3,15.3,0,0,1-.3,5.55A13.42,13.42,0,0,1,755.7,638.1Zm.14-16.64a6.74,6.74,0,0,0-4.93-3.64,7.82,7.82,0,0,0-3.32-.09,6.6,6.6,0,0,0-2.71,1.25,7.94,7.94,0,0,0-2,2.43,12.37,12.37,0,0,0-1.3,3.45,12.54,12.54,0,0,0-.33,3.68,8.09,8.09,0,0,0,.8,3.08,6.68,6.68,0,0,0,1.9,2.3,7.82,7.82,0,0,0,3,1.36,7.65,7.65,0,0,0,3.32.08,6.65,6.65,0,0,0,2.71-1.24,8.08,8.08,0,0,0,2-2.43,12.44,12.44,0,0,0,1.3-3.46A10.12,10.12,0,0,0,755.84,621.46Z"/><path class="cls-8" d="M785.47,648.14l-4.8-1.09-3.1-10.57-4.68-1.06-2.14,9.37-4.61-1,5.74-25.24,9.23,2.1q8.7,2,7,9.26A8.06,8.06,0,0,1,786,634a10.21,10.21,0,0,1-3.85,2.23Zm-6.28-23.92-3.57-.81-1.75,7.68,3.39.77c2,.44,3.36.42,4.23-.08a3.87,3.87,0,0,0,1.75-2.69,3.66,3.66,0,0,0-.4-3.07C782.28,625.25,781.07,624.65,779.19,624.22Z"/><path class="cls-8" d="M813.46,632.67,806.32,631l-4.73,20.77-4.62-1L801.7,630l-7.14-1.63,1-4.47,18.9,4.3Z"/></g></g></g></svg>