<svg xmlns="http://www.w3.org/2000/svg" xmlns:xlink="http://www.w3.org/1999/xlink" viewBox="0 0 1920 1080"><defs><style>.cls-1{fill:none;}.cls-2{isolation:isolate;}.cls-3{fill:#222449;}.cls-4{clip-path:url(#clip-path);}.cls-5{fill:#f2f2f2;}.cls-6{fill:#ccc;}.cls-7{fill:#c2ebd7;}.cls-8{fill:#f9d549;}.cls-9{fill:#534741;}.cls-10{fill:#fff;}.cls-11,.cls-12,.cls-13,.cls-14,.cls-15,.cls-16{opacity:0.4;mix-blend-mode:multiply;}.cls-11{fill:url(#linear-gradient);}.cls-12{fill:url(#linear-gradient-2);}.cls-13{fill:url(#linear-gradient-3);}.cls-14{fill:url(#linear-gradient-4);}.cls-15{fill:url(#linear-gradient-5);}.cls-16{fill:url(#linear-gradient-6);}</style><clipPath id="clip-path"><path class="cls-1" d="M1245.63,1012.08c-139.38-70.66-254.18-187.37-328.87-324.65-20.85-38.32-35.1-89-43.23-133.09,88-37.49,162.53-107.08,203.56-193.66,12.36-26.08,22-54.5,19.74-83.28s-18.54-57.85-45.39-68.41c-26.16-10.29-56.88-1-78.66,16.72s-36.23,42.82-49,67.84c-40.15,78.5-69.35,166.85-57.63,254-24.21,10.7-52.46,27.69-77.53,32-54.54,9.34-109.76,7-165.16,3.28-52.72-76.88-115.76-147.39-160-228.75,7.76-5.06,16.67-12.48,22.67-15.14,49.05-21.77,92.15-61.49,108.08-112.73,14.08-45.32.43-103.18-42.57-123.25-47.15-22-105.88,14-123.59,63s-4.26,103.76,17,151.24c3.84,8.58,4.41,23.28,7.29,34.11-39.73,11.79-81.91,15.49-123.53,15.93a874.88,874.88,0,0,1-406.6-95.66l-.3,898.8H1965.47V841.81C1771.19,1133.23,1385,1082.75,1245.63,1012.08Z"/></clipPath><linearGradient id="linear-gradient" x1="533.66" y1="312.22" x2="472.9" y2="345" gradientUnits="userSpaceOnUse"><stop offset="0" stop-color="#fff"/><stop offset="0.11" stop-color="#eaeaea"/><stop offset="0.34" stop-color="#b4b4b4"/><stop offset="0.67" stop-color="#5d5d5d"/><stop offset="1"/></linearGradient><linearGradient id="linear-gradient-2" x1="372.23" y1="366.66" x2="441.59" y2="352.66" xlink:href="#linear-gradient"/><linearGradient id="linear-gradient-3" x1="571.6" y1="498.76" x2="594.29" y2="553.28" gradientUnits="userSpaceOnUse"><stop offset="0.1" stop-color="#fff"/><stop offset="0.2" stop-color="#eaeaea"/><stop offset="0.41" stop-color="#b4b4b4"/><stop offset="0.71" stop-color="#5d5d5d"/><stop offset="1"/></linearGradient><linearGradient id="linear-gradient-4" x1="667.83" y1="667.17" x2="640.8" y2="601.23" xlink:href="#linear-gradient-3"/><linearGradient id="linear-gradient-5" x1="764.96" y1="574.23" x2="847.32" y2="574.23" xlink:href="#linear-gradient-3"/><linearGradient id="linear-gradient-6" x1="950.18" y1="512.58" x2="892.98" y2="545.09" xlink:href="#linear-gradient-3"/></defs><title>landingpage</title><g class="cls-2"><g id="Layer_1" data-name="Layer 1"><rect class="cls-3" width="1920" height="1080"/><g class="cls-4"><rect class="cls-5" x="-69.58" y="20.48" width="2069.92" height="1295.88"/><polygon class="cls-6" points="226.86 704.98 224.09 716.79 295.85 733.61 334.16 719.67 350.36 726.71 422.73 819.06 535.72 723.5 524.76 716.88 424.51 801.66 358.02 716.8 334.56 706.62 295.1 720.97 226.86 704.98"/><polygon class="cls-6" points="431.51 650.06 350.33 717.08 358.05 726.43 441.06 657.91 431.51 650.06"/><polygon class="cls-6" points="182.98 462.47 174.77 453.54 24.75 591.29 169.37 753.56 191.85 753.66 191.9 741.52 174.83 741.45 41.76 592.14 182.98 462.47"/><rect class="cls-6" x="132.37" y="528.39" width="12.13" height="186.62" transform="translate(-368 235.44) rotate(-40.11)"/><polygon class="cls-6" points="423.87 659.09 344.33 647.5 109.42 371.75 100.18 379.62 338.06 658.85 422.12 671.1 423.87 659.09"/><path class="cls-6" d="M262.23,558l-8.09-9.05-47.64,42.6a73.28,73.28,0,0,1-7.77,5.78l-.87.59c-9.49,6.47-16.69,3.89-20.26-.67-3.81-4.86-4.46-13.19,3.12-20,13-11.62,54.36-47.89,54.78-48.26l-8-9.12c-.41.36-41.84,36.67-54.87,48.34-12.8,11.46-12,27-4.59,36.5,7.17,9.15,21.28,13.69,36.65,3.22l.86-.59a84.61,84.61,0,0,0,9-6.76Z"/><polygon class="cls-6" points="147.82 426.2 139.97 416.95 72.85 474.01 35.32 415.2 25.09 421.72 70.11 492.26 147.82 426.2"/><path class="cls-7" d="M744.45,1000.37l28.65,28.78S676.35,1107.3,630.56,1119l-18.93-37Z"/><path class="cls-6" d="M449.21,590.76l8.55,8.61c4.46-4.44,109.47-109.6,120.43-197.42C589,315.22,541,69.19,538.93,58.76L527,61.1c.5,2.53,49.7,254.55,39.12,339.35C555.71,484.11,450.27,589.7,449.21,590.76Z"/><path class="cls-6" d="M609.42,566.87l-23.87-40.73,88.1-53.68-21.33-40.41,79.94-59.53-38.39-50.61-17.48,8.94-48.32-67.09,53.15-36-16.89-28.62,34.57-25.12a37.86,37.86,0,0,1,53.43,9.12L839.13,309a43.38,43.38,0,0,1-11.72,60.76l-65.88,43.7-21.31-31.75L667.9,435.58l21.8,41.31L602.05,530.3l23.4,39.92L518.16,648.1,511,638.28Zm88-260.4,44.6,58.8,1.2-.89,21.69,32.31,55.82-37a31.23,31.23,0,0,0,8.44-43.76l-86.8-125.83a25.73,25.73,0,0,0-36.3-6.2l-25.65,18.64,17.07,29-52.25,35.35,34.93,48.49Z"/><polygon class="cls-6" points="708.6 762.9 720.09 766.8 743.78 697.01 733.63 657.53 742.2 642.08 841.13 579.01 713.46 394.35 703.47 401.25 823.99 575.55 733.08 633.51 720.67 655.87 731.13 696.53 708.6 762.9"/><polygon class="cls-6" points="416.06 458.35 423.11 468.23 544.11 381.79 573.91 380.67 573.45 368.55 540.02 369.8 416.06 458.35"/><polygon class="cls-6" points="423.6 347.35 430.43 357.38 536.35 285.26 567.07 289.05 568.56 277.01 533.3 272.65 423.6 347.35"/><polygon class="cls-6" points="399 252.06 405.98 261.98 516.92 183.95 553.57 180.64 552.48 168.56 512.59 172.15 399 252.06"/><polygon class="cls-6" points="1062.23 724.83 1143.41 824.98 1157.48 879.66 1169.23 876.63 1154.5 819.39 1071.65 717.19 1062.23 724.83"/><polygon class="cls-6" points="1119.63 785.23 1126.49 795.24 1258.35 704.81 1234.72 675.27 1225.25 682.85 1240.71 702.19 1119.63 785.23"/><polygon class="cls-6" points="774.22 680.75 833.86 758.43 820.34 805.59 832 808.94 847.21 755.9 791.63 683.5 995.4 543.42 1024.16 585.58 865.9 702.85 902.28 759.16 1124.84 795.51 1126.8 783.54 909.54 748.05 882.27 705.82 1040.76 588.38 998.56 526.53 774.22 680.75"/><rect class="cls-6" x="686.3" y="489.63" width="12.13" height="162" transform="translate(-200.69 484.42) rotate(-33.98)"/><rect class="cls-6" x="272.95" y="383.7" width="119.12" height="12.13" transform="translate(-166.67 274.45) rotate(-36.52)"/><polygon class="cls-6" points="856.5 1005.44 948.7 1028.21 978.29 998.88 1177.25 1029.25 1195.95 938.63 1184.07 936.18 1167.69 1015.51 974.09 985.96 945 1014.8 873.59 997.16 919.49 896.24 908.45 891.21 856.5 1005.44"/><polygon class="cls-6" points="1165.89 1246.63 1173.19 1256.33 1335.96 1133.91 1207.91 958.27 1185.55 955.98 1184.31 968.04 1201.29 969.78 1319.11 1131.4 1165.89 1246.63"/><polygon class="cls-6" points="1216.63 979.88 1223.14 990.12 1248.74 973.83 1265.44 1000.37 1275.71 993.91 1252.52 957.05 1216.63 979.88"/><rect class="cls-6" x="1219.73" y="999.22" width="12.13" height="186.62" transform="translate(-403.23 886.46) rotate(-34.5)"/><polygon class="cls-6" points="945.39 1027.39 1023.42 1046.71 1230.22 1344.12 1240.19 1337.19 1030.77 1036.03 948.31 1015.61 945.39 1027.39"/><path class="cls-6" d="M1217.46,874.53l12,1.82,9.6-63.18a74.26,74.26,0,0,1,2.31-9.4l.3-1c3.2-11,10.39-13.62,16-12.38,6,1.32,11.84,7.33,10.31,17.4-2.6,17.22-11.42,71.54-11.5,72.08l12,1.95c.09-.55,8.91-54.93,11.53-72.22,2.57-17-8-28.48-19.71-31.06-11.35-2.49-25.13,3-30.3,20.85l-.29,1a83,83,0,0,0-2.66,11Z"/><polygon class="cls-6" points="882.8 1127.22 933.92 1203.79 1074.87 1110.32 1068.17 1100.21 937.29 1186.99 899.73 1130.74 1030.38 1046.47 1023.8 1036.27 882.8 1127.22"/><polygon class="cls-6" points="2203.78 1281.38 2124.76 1266.64 1900.94 981.81 1891.4 989.31 2118.04 1277.73 2201.55 1293.3 2203.78 1281.38"/><polygon class="cls-6" points="1937.17 1037.74 1929.68 1028.19 1860.36 1082.55 1825.19 1022.3 1814.71 1028.41 1856.9 1100.68 1937.17 1037.74"/><rect class="cls-6" x="1810.06" y="981.94" width="172.21" height="12.13" transform="translate(-184.52 1480.32) rotate(-40.83)"/><rect class="cls-6" x="459.43" y="1246.56" width="556.78" height="12.13" transform="translate(-713.02 1344.8) rotate(-63.14)"/><polygon class="cls-6" points="833.57 1064.37 892.44 1076.68 936.82 1022.51 927.43 1014.82 887.72 1063.3 836.05 1052.49 833.57 1064.37"/><polygon class="cls-6" points="749.73 926.74 799.06 1118.45 810.81 1115.43 762.02 925.79 766.92 875.35 746.3 830.74 735.28 835.83 754.53 877.45 749.73 926.74"/><path class="cls-8" d="M58.6,88.2c75.22,152.46,245.34,391.05,378.26,504.72C569.56,706.42,725,793,886.46,843.21,969.26,869,1071.51,874,1179,887c305.22,36.92,557.82,175.77,675.14,261.68l10.75-14.68c-121.43-88.92-395-234.89-684.33-265.13-106.65-11.15-207.47-18.84-288.67-43.08C495.8,707.6,225.37,385.1,74.93,80.15Z"/><path class="cls-8" d="M26.12,138c.54,1.16,90.19,180.58,203,317.92C295.4,536.59,368.35,608.64,446,670.08,543.07,747,647.79,807.35,757.2,849.6c226,87.23,372.4,91.78,499.79,111.09,254.46,38.56,460.22,166.17,584,227l8-16.34c-126.84-62.36-290-179.11-590.46-228.82-125.92-20.84-271.27-23.64-494.81-109.94C519.74,738.41,346,569.5,243.21,444.38,131.81,308.78,43.13,131.43,42.6,130.29Z"/><polygon class="cls-7" points="663.82 609.81 692.54 652.72 645.31 686.76 613.88 644.76 663.82 609.81"/><polygon class="cls-7" points="947.45 799.26 922.58 821.87 899.57 789.7 917.44 770.89 947.45 799.26"/><path class="cls-7" d="M91.16,882.35A68.88,68.88,0,1,0,175,931.9,68.88,68.88,0,0,0,91.16,882.35Z"/><path class="cls-7" d="M603.1,798.79c20.55,12.05,20.53,41.78,14.33,64.78-3.06,11.34-7,22.59-13.59,32.35-11.22,16.71-28.93,27.68-44.56,40.37s-30.38,29.36-31.43,49.47c-.41,7.89,1.34,16-1,23.58-4.78,15.54-25.23,21.34-40.63,16.12s-26.81-18-37.75-30-23-24.4-38.77-28.37c-9.29-2.34-19.57-1.66-27.81-6.55-11.87-7-15-22.9-14-36.66A99.24,99.24,0,0,1,413,848.52c8.74-5.54,18.6-9.74,28.93-10.26,15.31-.77,30.19,6.5,45.5,5.62,21.73-1.24,38.77-18,55.87-31.53S584.32,787.78,603.1,798.79Z"/><path class="cls-6" d="M220.68,1084.3c-1-5.27-2.29-13-3.86-22.88-2.64-16.62-6.08-39.75-10.22-68.74-7-49.33-13.81-99.24-13.87-99.74l-.81-5.94,80.56-12,53.94-101.71,60-13.21L389,772l-54.51,12-52.67,99.31,6.48,11.38,31.27,186-5.74,1.17c-81.69,16.71-84.68,16.23-86,16C223.11,1097.13,222.4,1093.38,220.68,1084.3Zm56-185.51-6.25-11,.51-.29-65.42,9.71c9,66.53,23.11,166,27.66,188,12.42-2.06,47.26-9,72.47-14.1Z"/><path class="cls-6" d="M32,430.87c-3.41-4.14-8.27-10.25-14.42-18.17C7.27,399.41-6.9,380.81-24.51,357.41c-30-39.81-60-80.28-60.27-80.68l-3.57-4.81,64.79-49.34-1.81-115.12L20.81,67l8,9.12-42,36.8,1.77,112.41,11.16,6.84L116.91,380l-4.46,3.79c-63.5,54-66.34,55.07-67.55,55.5C40.34,440.94,37.9,438,32,430.87ZM-8.39,241.35l-10.77-6.6.31-.5-52.62,40.07c40,53.91,100.32,134.26,114.92,151.34,9.89-7.8,37.07-30.66,56.68-47.31Z"/></g><path class="cls-9" d="M1512.07,1095.26c-114.21,0-218.75-26.59-279.92-57.6C1091.9,966.55,971,847,891.58,701.13c-21.17-38.91-35.81-73.47-44.9-106.27a406.19,406.19,0,0,1-53.25,12.89c-38.62,6.61-77.39,7.71-115.73,6.55,32.91,56.1,54.69,115.1,63.17,171.36,11,72.72-.35,136.9-33.61,190.75C653.58,1063.32,542,1110.36,436,1090.81,339.12,1073,251.36,1002.13,207,906c-31.56-68.37-36.65-138.26-14.33-196.79C236,595.4,367.44,551.27,476,547.92c29.65-.92,59.35.28,88.58,2.07-7.86-10.53-15.77-21-23.6-31.32-32.87-43.41-66.57-87.92-94.56-136.3-43.5,10.87-86,12.86-117.42,13.19A903.72,903.72,0,0,1-91.14,296.5l26.16-51a846,846,0,0,0,393.32,92.75c34.73-.36,64.62-3.11,90.9-8.46l-.42-.93C389.35,263,383.36,204.89,401,156.1c12.73-35.18,41.27-64.87,76.35-79.43,29.31-12.17,60-12.09,86.32.21,58.38,27.26,75.24,101.6,57.8,157.71C604.59,289,561,335.65,501.57,363.18c24.79,41.25,54.34,80.28,85.08,120.88,17.5,23.11,35.36,46.7,52.45,71,49.7,3.1,97.46,4.25,144.65-3.83A350.86,350.86,0,0,0,836.18,538c-7.19-77.51,13.21-162,62.05-257.51,14.12-27.6,30.72-56,56.43-77C987,177.12,1028.1,169,1061.93,182.3c35.27,13.87,60.19,50.33,63.48,92.89,3,38.88-11.34,74.42-22.41,97.77-41.71,88-115,159.32-202.59,200.81,7.7,30.18,21.19,62.54,41.54,100,73.88,135.8,186.15,246.88,316.13,312.78,67,33.94,193,61.86,323.55,47.72,108.63-11.77,259.08-57.44,358.91-208.24l47.81,31.65c-112.11,169.36-279.7,220.51-400.55,233.6A706.34,706.34,0,0,1,1512.07,1095.26ZM497,605q-9.68,0-19.25.29c-85.93,2.65-198.12,36.82-231.51,124.37C229.68,773,234.34,828.48,259,881.93c36.72,79.53,108.51,138,187.37,152.49,82,15.11,171.2-22,212.08-88.14,72.78-117.82-9.24-269.16-36.11-312.74q-7.17-11.62-14.85-23.13l-9.09-.64C565,607.39,530.6,605,497,605Zm531.22-371.58c-13.31,0-27.4,6.49-37.29,14.56-16.53,13.48-28.59,33.21-41.62,58.68-39.62,77.46-58.46,145.65-57.08,207.19,68.53-36.65,125.53-94.82,159-165.4,13.13-27.71,18.55-49.56,17.06-68.78-1.56-20.17-12.78-38.25-27.29-44A34.58,34.58,0,0,0,1028.19,233.37ZM521.39,124.92a58.25,58.25,0,0,0-22,4.71c-19.85,8.24-37.29,26.29-44.41,46-12.43,34.34-7,78,16.21,129.78q1.61,3.58,3.27,7.14c45.63-20.26,80.13-55.76,92.31-94.95,10-32.05,1.37-75.35-27.3-88.74A42.29,42.29,0,0,0,521.39,124.92Z"/><path class="cls-10" d="M402.65,359.33A513.32,513.32,0,0,1,348,364.05l.18,4.79a514.59,514.59,0,0,0,55.19-4.77Z"/><path class="cls-10" d="M431.77,578a396.65,396.65,0,0,0-54.31,11.36l1.31,4.61a393.46,393.46,0,0,1,53.66-11.22Z"/><path class="cls-10" d="M325.49,608.83a256.78,256.78,0,0,0-47.37,29.07l2.95,3.78a252.47,252.47,0,0,1,46.49-28.52Z"/><path class="cls-10" d="M380.79,1046.08a262.47,262.47,0,0,0,52.75,17.46l1-4.69a257.47,257.47,0,0,1-51.78-17.14Z"/><path class="cls-10" d="M461.56,345.66c-2.37-4.52-4.66-9-6.86-13.51l-4.31,2.11c2.11,4.3,18.79,36.84,26.74,48.48l4.09-2.5c-6.32-10.37-12.07-20.4-17.38-30.29Z"/><path class="cls-10" d="M294.07,978.71l-3.44,3.34a307.26,307.26,0,0,0,42.05,36.25l2.79-3.9A302.93,302.93,0,0,1,294.07,978.71Z"/><path class="cls-10" d="M488.79,1064l.1,4.8a251.42,251.42,0,0,0,55.11-7.33l-1.15-4.65A246.76,246.76,0,0,1,488.79,1064Z"/><path class="cls-10" d="M506.14,325.85A228.34,228.34,0,0,1,485,336.56l2,4.39A233.11,233.11,0,0,0,508.54,330Z"/><path class="cls-10" d="M581.88,249.55A173.22,173.22,0,0,1,549.54,293l3.37,3.41a178,178,0,0,0,33.23-44.69Z"/><path class="cls-10" d="M597.47,578.55l-.34,4.78,3.23.23c17,1.21,34.6,2.46,51.87,3.38l.25-4.8c-17.23-.91-34.79-2.16-51.78-3.36Z"/><path class="cls-10" d="M233.13,888.43l-4.39,1.94c.68,1.54,1.37,3.06,2.07,4.58a312.94,312.94,0,0,0,24.83,44l4-2.68a309,309,0,0,1-24.44-43.32C234.47,891.45,233.8,889.94,233.13,888.43Z"/><path class="cls-10" d="M542.13,579.87l.23-4.8c-16.62-.8-31.4-1.19-45.18-1.19-3.37,0-6.75,0-10.12.07l.07,4.8q5-.07,10.05-.08C510.88,578.67,525.58,579.06,542.13,579.87Z"/><path class="cls-10" d="M239.3,677.74a177.14,177.14,0,0,0-22.12,40.8c-1.1,2.89-2.14,5.86-3.1,8.84l4.57,1.46c.93-2.9,1.94-5.79,3-8.59a172.37,172.37,0,0,1,21.52-39.69Z"/><path class="cls-10" d="M507.46,429c9.22,13.22,19.53,27.43,32.45,44.71l3.84-2.87c-12.88-17.24-23.16-31.4-32.35-44.58Z"/><path class="cls-10" d="M596.81,197.9l4.79.3c.17-2.66.25-5.34.25-8a118.26,118.26,0,0,0-9.46-47.07L588,145.09a113.53,113.53,0,0,1,9,45.14C597.05,192.77,597,195.35,596.81,197.9Z"/><path class="cls-10" d="M866.89,532.33c-.66-8-1-16.26-1-24.5,0-9.86.48-20,1.42-30.18l-4.78-.44c-.95,10.31-1.44,20.61-1.44,30.62,0,8.37.34,16.75,1,24.89Z"/><path class="cls-10" d="M430.23,166.67A104.87,104.87,0,0,1,455,128.52l-3.38-3.4A109.65,109.65,0,0,0,425.72,165c-1,2.63-1.83,5.33-2.62,8l4.61,1.35C428.46,171.81,429.31,169.21,430.23,166.67Z"/><path class="cls-10" d="M550.54,105c.77.36,1.54.73,2.3,1.12l2.18-4.27c-.8-.41-1.62-.81-2.45-1.2-16-7.48-34.42-8.83-52.93-3.9l1.23,4.64C518.29,96.79,535.54,98,550.54,105Z"/><path class="cls-10" d="M128.42,348.07c17.93,4,36.21,7.52,54.33,10.4l.75-4.74c-18-2.86-36.2-6.34-54-10.34Z"/><path class="cls-10" d="M22.26,317.17c17.26,6.22,35,12,52.6,17.12l1.34-4.61c-17.55-5.1-35.14-10.83-52.31-17Z"/><path class="cls-10" d="M210.13,782.43l-4.8-.08c0,1.1,0,2.2,0,3.31a239.21,239.21,0,0,0,5.95,52l4.69-1a233.31,233.31,0,0,1-5.84-50.93C210.1,784.58,210.11,783.5,210.13,782.43Z"/><path class="cls-10" d="M433.77,281.52a232.58,232.58,0,0,1-11.06-53.34l-4.78.37A237.69,237.69,0,0,0,429.2,283Z"/><path class="cls-10" d="M594,1038l2.16,4.29a232.93,232.93,0,0,0,46.41-30.63l-3.11-3.66A227.9,227.9,0,0,1,594,1038Z"/><path class="cls-10" d="M293,364.12c-18.22-.56-36.69-1.72-54.9-3.45l-.46,4.77c18.32,1.74,36.89,2.91,55.21,3.48Z"/><path class="cls-10" d="M605.19,552.8c-11.36-15.82-18.33-24.89-28.2-38l-3.83,2.89c9.85,13,14.47,18.88,25.8,34.66Z"/><path class="cls-10" d="M1072.76,219.75l-3.27,3.51c12.26,11.4,21,28.47,24,46.85l4.74-.78C1095.08,249.93,1085.78,231.86,1072.76,219.75Z"/><path class="cls-10" d="M646.25,613.09l-6.15-.78c2.61,4.07,2.08,3.33,4.62,7.44,7.07,11.46,13.76,23.3,19.9,35.19l4.26-2.2c-6.19-12-13-24-20.08-35.51C646.25,613.09,648.88,617.19,646.25,613.09Z"/><path class="cls-10" d="M1222.77,997.5l-2.33,4.2c7.75,4.3,15.68,8.51,23.59,12.52s16.81,8,26.19,11.85l1.81-4.44c-9.27-3.76-18-7.7-25.83-11.68S1230.46,1001.78,1222.77,997.5Z"/><path class="cls-10" d="M1049.17,863.71l-3.45,3.34c12.85,13.24,26.27,26.14,39.89,38.34l3.2-3.57C1075.27,889.69,1061.93,876.87,1049.17,863.71Z"/><path class="cls-10" d="M1003.42,462.19l3.44,3.34a397.75,397.75,0,0,0,35.76-42.38l-3.87-2.83A394.89,394.89,0,0,1,1003.42,462.19Z"/><path class="cls-10" d="M1074.92,359.65c-2.24,4.73-4.63,9.52-7.12,14.24l4.24,2.23c2.52-4.77,5-9.62,7.22-14.41a246.21,246.21,0,0,0,14.32-36.8l-4.61-1.34A240,240,0,0,1,1074.92,359.65Z"/><path class="cls-10" d="M1322.72,1043.83c17.23,4.85,35.37,9.09,53.92,12.61l.89-4.71c-18.41-3.5-36.41-7.71-53.51-12.52Z"/><path class="cls-10" d="M1849.58,960.75l2.87,3.84a474.25,474.25,0,0,0,42.34-35.72l-3.3-3.48A474,474,0,0,1,1849.58,960.75Z"/><path class="cls-10" d="M1431.37,1064.64c18.29,2,36.86,3.36,55.21,4l.16-4.79c-18.22-.63-36.67-2-54.84-4Z"/><path class="cls-10" d="M1754.92,1015.86l1.94,4.39a500.23,500.23,0,0,0,49.37-25.12l-2.41-4.14A497.17,497.17,0,0,1,1754.92,1015.86Z"/><path class="cls-10" d="M1541.71,1063.59l.22,4.79c18.56-.82,37.12-2.39,55.15-4.69l-.6-4.76C1578.57,1061.21,1560.15,1062.78,1541.71,1063.59Z"/><path class="cls-10" d="M1650.6,1049.62l1,4.68c18.19-4,36.17-8.82,53.45-14.38l-1.47-4.57C1686.48,1040.87,1668.64,1045.67,1650.6,1049.62Z"/><path class="cls-10" d="M1128.14,940.79c14.61,11.29,29.75,22.12,45,32.19l2.64-4c-15.14-10-30.19-20.76-44.71-32Z"/><path class="cls-10" d="M707.48,583.63l0,4.8a544.2,544.2,0,0,0,55.31-2.95l-.51-4.76A540.71,540.71,0,0,1,707.48,583.63Z"/><path class="cls-10" d="M892.27,371.11l-4.51-1.64a494.43,494.43,0,0,0-16,53l4.66,1.12A489.39,489.39,0,0,1,892.27,371.11Z"/><path class="cls-10" d="M974.36,782.58c10.9,14.84,22.42,29.46,34.24,43.45l3.66-3.09c-11.74-13.91-23.2-28.44-34-43.2Z"/><path class="cls-10" d="M712.64,811.3c.76,8.77,1.14,17.51,1.14,26a271.1,271.1,0,0,1-1.49,28.62l4.77.51a275.39,275.39,0,0,0,1.52-29.13c0-8.62-.39-17.51-1.16-26.41Z"/><path class="cls-10" d="M680.82,960.09c-1.56,2.53-3.21,5.08-4.91,7.57l4,2.7c1.74-2.55,3.43-5.15,5-7.75a218.76,218.76,0,0,0,20-41.92l-4.52-1.59A213.85,213.85,0,0,1,680.82,960.09Z"/><path class="cls-10" d="M687.12,705a433.75,433.75,0,0,1,16.48,52.31l4.66-1.15a439.63,439.63,0,0,0-16.66-52.88Z"/><path class="cls-10" d="M816.26,571.18l1.17,4.66c17.77-4.49,11.11-2.51,23.38-6.71l-1-4.73C827.35,568.88,833.8,566.75,816.26,571.18Z"/><path class="cls-10" d="M917.35,529.64l2.42,4.15a412,412,0,0,0,45.86-31.17l-3-3.78A406.57,406.57,0,0,1,917.35,529.64Z"/><path class="cls-10" d="M871.88,587.39a391,391,0,0,0,18.66,52.22l4.4-1.91a387.11,387.11,0,0,1-18.43-51.59Z"/><path class="cls-10" d="M1020,202.74c-17,1.85-34.34,9.35-48.77,21.11-.71.58-1.41,1.17-2.11,1.77l3.13,3.64c.66-.58,1.34-1.14,2-1.69,13.71-11.19,30.14-18.31,46.25-20.06Z"/><path class="cls-10" d="M938.47,271.53l-4.13-2.44c-3.9,6.59-7.94,14-12.72,23.37-4.45,8.69-8.7,17.4-12.64,25.87l4.34,2c3.92-8.41,8.15-17.07,12.57-25.71C930.62,285.38,934.62,278,938.47,271.53Z"/><path class="cls-10" d="M915,689.27c8.79,16.11,18.24,32.14,28.1,47.65l4-2.57C937.37,718.93,928,703,919.24,687Z"/><path class="cls-11" d="M474.28,312.63S490,351.46,501.56,363c0,0,25.34-10.95,46.63-28l-31.34-47.82S494.92,304.19,474.28,312.63Z"/><path class="cls-12" d="M419.16,330s14.6,36.11,27.19,52.77a528.58,528.58,0,0,1-67.57,10.6l-11-57C384.18,336.17,419.16,330,419.16,330Z"/><path class="cls-13" d="M564.68,550.25s44.37,2.6,74.35,5l-41.9-57.76-66.83,7.59Z"/><path class="cls-14" d="M607.55,610.51l70.46,3.9s25.59,46,26.69,53.07l-61.77,3C630.84,645.59,607.55,610.51,607.55,610.51Z"/><path class="cls-15" d="M836.47,538c.9,24.49,10.85,56.67,10.85,56.67-27.19,9.6-71.16,15.89-71.16,15.89L765,554C801.84,550,836.47,538,836.47,538Z"/><path class="cls-16" d="M892.09,513.67s-2,14,8.24,59.81c0,0,58.12-28.63,63.72-37.32L935,487S901.23,509.92,892.09,513.67Z"/><rect class="cls-1" x="1" y="-763" width="1918.9" height="1912"/></g></g></svg>