<svg xmlns="http://www.w3.org/2000/svg" viewBox="0 0 910.9 880.51"><defs><style>.cls-1{fill:#acccba;}.cls-2{fill:#98b7a4;}.cls-3{fill:#222449;}.cls-4{fill:#333;}.cls-5{fill:#c2ebd7;}.cls-6{fill:#b8ddc9;}.cls-7{fill:#19364b;}.cls-8{fill:#ef4136;}.cls-9{fill:#9ca8a8;}.cls-10{fill:#fff;}.cls-11{fill:#f9d549;}.cls-12{fill:#00a79d;}</style></defs><title>Asset 2</title><g id="Layer_2" data-name="Layer 2"><g id="Layer_1-2" data-name="Layer 1"><path class="cls-1" d="M743.68,692.71a75,75,0,0,1-75,75H75a75,75,0,0,1-75-75V583.39a75,75,0,0,1,75-75H668.67a75,75,0,0,1,75,75Z"/><path class="cls-2" d="M743.68,571.11v93.1a75,75,0,0,1-75,75H75A75,75,0,0,1,1.24,677.74V694a75,75,0,0,0,75,75H669.9a75,75,0,0,0,75-75V584.64A74.42,74.42,0,0,0,743.68,571.11Z"/><path class="cls-3" d="M198.39,54.09c-4.41,1.1-108.24,28.23-129,135.22-8.36,43-2,104.09,18.76,181.61,16.89,62.93,38.62,118.41,47.75,138.94l55.5-24.66C169.5,436,114.11,277.29,129,200.9c13.32-68.53,81.43-87.18,84.32-87.94l-.17.05Z"/><path class="cls-3" d="M526.89,54.09c4.41,1.1,108.23,28.23,129,135.22,8.35,43,2,104.09-18.76,181.61-16.89,62.93-38.63,118.41-47.76,138.94l-55.5-24.66C555.77,436,611.16,277.29,596.3,200.9,583,132.37,514.88,113.72,512,113l.17.05Z"/><path class="cls-4" d="M418.66,85.7a48.34,48.34,0,1,1-96.67,0V69.59c0-26.66,21.26-53.71,47.92-53.71,28.6,0,48.75,25.88,48.75,53.71Zm24.79-16.11c0-29.79-19.64-60-49.49-67-25-5.85-56.21-2.41-75,16.66C313.43,24.8,307.19,32.31,304,39.5c-3.88,8.85-6.83,20.38-6.83,30.09V85.7a73.13,73.13,0,1,0,146.25,0Z"/><path class="cls-4" d="M206.4,48.05h0c-38,14.15-45.88,21.46-45.88,21.46l7.71.79c5.17.52,9.57,4.16,11.51,9.48L216,179.55a14,14,0,0,1-3.64,15.11l-5.69,5.28,7.72.78a20.68,20.68,0,0,0,9.34-1.14l33.37-12.15a21.08,21.08,0,0,0,12.6-27L233.42,60.65a21.09,21.09,0,0,0-27-12.6Z"/><path class="cls-4" d="M520.09,49.29h0C558.14,63.45,566,70.76,566,70.76l-7.71.79A14,14,0,0,0,546.77,81l-36.3,99.76a14,14,0,0,0,3.64,15.11l5.68,5.28-7.72.79a20.8,20.8,0,0,1-9.33-1.15l-33.38-12.15a21.11,21.11,0,0,1-12.6-27l36.32-99.76a21.08,21.08,0,0,1,27-12.6Z"/><path class="cls-5" d="M678.4,756c8.73-40.15,1.91-90.46-2.69-135.61C665.57,521,597.93,74.49,369.61,76.54S80.17,481.73,71.53,562.1C59.72,672.12-2,831.19,172.19,831.19H572.32C641.13,831.19,668.92,799.58,678.4,756Z"/><path class="cls-6" d="M372.51,123.63C468,123,535.35,182,582.18,256.34,535.26,156.05,467.2,75.66,370,76.54c-115.16,1-187.79,104.11-232.59,216.34C182,205.73,255.2,124.44,372.51,123.63Z"/><path class="cls-1" d="M587.51,700a70.27,70.27,0,0,1-70.27,70.27H226.44A70.28,70.28,0,0,1,156.17,700V540.53a70.27,70.27,0,0,1,70.27-70.26h290.8a70.26,70.26,0,0,1,70.27,70.26Z"/><rect class="cls-2" x="156.17" y="456.63" width="431.33" height="299.96" rx="70.27"/><path class="cls-2" d="M492.07,375.62c0,20.19-15.73,36.57-35.14,36.57H284.27c-19.41,0-35.14-16.38-35.14-36.57V286.2c0-20.19,15.73-36.56,35.14-36.56H456.93c19.41,0,35.14,16.37,35.14,36.56Z"/><path class="cls-1" d="M284.27,242.2H456.93a35.14,35.14,0,0,1,35.14,35.14v85.9a35.13,35.13,0,0,1-35.13,35.13H284.27a35.14,35.14,0,0,1-35.14-35.14v-85.9A35.14,35.14,0,0,1,284.27,242.2Z"/><rect class="cls-3" x="247.89" y="295.5" width="242.32" height="14.88"/><path class="cls-4" d="M283.51,289.93h-9.08a5.94,5.94,0,0,0-5.94,5.94v59.39a5.94,5.94,0,0,0,5.94,5.94h9.08a5.94,5.94,0,0,0,5.94-5.94V295.87A5.94,5.94,0,0,0,283.51,289.93ZM279,356.85a6.2,6.2,0,1,1,6.19-6.2A6.2,6.2,0,0,1,279,356.85Z"/><rect class="cls-1" x="155.86" y="519.84" width="430.41" height="7.44"/><path class="cls-3" d="M201,500h10.74a7,7,0,0,1,7,7v70.23a7,7,0,0,1-7,7H201a7,7,0,0,1-7-7V507A7,7,0,0,1,201,500Z"/><path class="cls-6" d="M587.51,519.84a70.4,70.4,0,0,0-70.26-64.45H225.41a70.41,70.41,0,0,0-70.27,64.45Z"/><rect class="cls-7" x="666.84" y="814.78" width="15.76" height="37.97"/><path class="cls-8" d="M665.94,803.4l4.18-.41a5,5,0,0,0,1.52,3.09,4.61,4.61,0,0,0,3.11,1,4.71,4.71,0,0,0,3.11-.88,2.58,2.58,0,0,0,1-2.05,1.91,1.91,0,0,0-.44-1.28,3.54,3.54,0,0,0-1.54-.93c-.5-.17-1.63-.48-3.42-.92a11.55,11.55,0,0,1-4.82-2.12,5.58,5.58,0,0,1-1-7.31,5.74,5.74,0,0,1,2.64-2.16,10.63,10.63,0,0,1,4.18-.74q4,0,6,1.77a6.22,6.22,0,0,1,2.12,4.7l-4.31.15a3.61,3.61,0,0,0-1.17-2.34,4.27,4.27,0,0,0-2.7-.72,4.83,4.83,0,0,0-2.9.77,1.52,1.52,0,0,0-.69,1.31,1.68,1.68,0,0,0,.64,1.3,11.79,11.79,0,0,0,3.94,1.42,20.3,20.3,0,0,1,4.62,1.53,6.07,6.07,0,0,1,2.35,2.17,6.44,6.44,0,0,1,.84,3.38,6.23,6.23,0,0,1-1,3.43,6,6,0,0,1-2.87,2.38,12,12,0,0,1-4.62.77,9.21,9.21,0,0,1-6.19-1.86A8.1,8.1,0,0,1,665.94,803.4Z"/><path class="cls-3" d="M438.55,644.34c0,130.23,106,236.17,236.17,236.17S910.9,774.57,910.9,644.34,805,408.16,674.72,408.16,438.55,514.11,438.55,644.34Z"/><path class="cls-9" d="M864.1,644.35c0-104.19-84.46-188.66-188.65-188.66S486.82,540.16,486.82,644.35,571.28,833,675.45,833,864.1,748.52,864.1,644.35Z"/><path class="cls-10" d="M855.41,645.23A179.8,179.8,0,1,0,675.61,825,179.8,179.8,0,0,0,855.41,645.23Z"/><rect class="cls-4" x="645.87" y="372.04" width="57.7" height="59.42"/><path class="cls-4" d="M737.7,340.65a63,63,0,1,0-63,63A63,63,0,0,0,737.7,340.65Zm-63,46.47a46.48,46.48,0,1,1,46.47-46.47A46.53,46.53,0,0,1,674.73,387.12Z"/><rect class="cls-7" x="666.84" y="437.68" width="15.76" height="37.98"/><rect class="cls-7" x="467.91" y="637.38" width="37.98" height="15.77"/><rect class="cls-7" x="845" y="637.3" width="37.98" height="15.76"/><polygon class="cls-7" points="691.76 663.87 797.78 647.26 692.01 629.25 675.39 523.24 657.39 629.01 551.37 645.62 657.14 663.63 673.75 769.65 691.76 663.87"/><polygon class="cls-5" points="649.42 629.5 741.73 515.99 698.15 655.53 649.42 629.5"/><polygon class="cls-11" points="648.65 630.95 605.58 770.76 697.37 656.99 648.65 630.95"/><path class="cls-7" d="M644.44,632.12a32.79,32.79,0,1,0,44.36-13.47A32.83,32.83,0,0,0,644.44,632.12Z"/><path class="cls-10" d="M694.31,658.77a23.76,23.76,0,1,0-32.16,9.76A23.75,23.75,0,0,0,694.31,658.77Z"/><path class="cls-12" d="M666.14,505.68V484.39h4.16L679,498.67V484.39h4v21.29h-4.29l-8.6-14v14Z"/><path class="cls-7" d="M536.4,652.84l-21.27,5v-4.42l14.61-3.17-14.61-3.87v-5.12L530,637.53l-14.86-3.24V630l21.27,5.12v4.58l-15.91,4.24,15.91,4.21Z"/><path class="cls-7" d="M817,635.82h21.28v15.75h-3.62V640.13h-4.69v10.64h-3.61V640.13h-5.76V652H817Z"/></g></g></svg>