<svg xmlns="http://www.w3.org/2000/svg" viewBox="0 0 597.88 597.88"><defs><style>.cls-1{fill:#c2ebd7;}.cls-2{fill:#b6dbc7;}.cls-3{fill:#19364b;}.cls-4{fill:#ef4136;}.cls-5{fill:#222449;}.cls-6{fill:#9ca8a8;}.cls-7{fill:#fff;}.cls-8{fill:#f9d549;}.cls-9{fill:#00a79d;}.cls-10{fill:#f2f2f2;}.cls-11{fill:#ddd;}</style></defs><title>Asset 3</title><g id="Layer_2" data-name="Layer 2"><g id="Layer_1-2" data-name="Layer 1"><circle class="cls-1" cx="298.94" cy="298.94" r="298.94"/><path class="cls-2" d="M576,411.32,507.28,343,155.77,449.56l147.1,146.91q6.12.63,12.32,1C433.5,591.1,533.53,516,576,411.32Z"/><rect class="cls-3" x="220.3" y="311.69" width="7.12" height="17.15"/><path class="cls-4" d="M219.89,306.55l1.89-.19a2.27,2.27,0,0,0,.69,1.4,2,2,0,0,0,1.4.45,2.19,2.19,0,0,0,1.41-.4,1.2,1.2,0,0,0,.47-.93.89.89,0,0,0-.2-.58,1.57,1.57,0,0,0-.69-.41c-.23-.08-.74-.22-1.55-.42a5.19,5.19,0,0,1-2.18-1,2.48,2.48,0,0,1-.88-1.93,2.43,2.43,0,0,1,.42-1.37,2.58,2.58,0,0,1,1.19-1,4.84,4.84,0,0,1,1.89-.33,4,4,0,0,1,2.71.8,2.84,2.84,0,0,1,1,2.12l-1.95.07a1.65,1.65,0,0,0-.53-1.06,2,2,0,0,0-1.22-.32,2.19,2.19,0,0,0-1.31.35.67.67,0,0,0-.31.59.77.77,0,0,0,.29.59,5.42,5.42,0,0,0,1.78.63,9.8,9.8,0,0,1,2.09.7,2.68,2.68,0,0,1,1.05,1,2.79,2.79,0,0,1,.39,1.52,2.92,2.92,0,0,1-.46,1.56,2.75,2.75,0,0,1-1.3,1.07,5.49,5.49,0,0,1-2.09.35,4.15,4.15,0,0,1-2.79-.84A3.68,3.68,0,0,1,219.89,306.55Z"/><path class="cls-5" d="M117.17,234.7A106.69,106.69,0,1,0,223.86,128,106.81,106.81,0,0,0,117.17,234.7Z"/><path class="cls-6" d="M309.4,234.7a85.21,85.21,0,1,0-85.21,85.21A85.22,85.22,0,0,0,309.4,234.7Z"/><path class="cls-7" d="M305.48,235.1a81.22,81.22,0,1,0-81.22,81.22A81.22,81.22,0,0,0,305.48,235.1Z"/><rect class="cls-3" x="220.3" y="141.35" width="7.12" height="17.16"/><rect class="cls-3" x="130.44" y="231.56" width="17.15" height="7.12"/><rect class="cls-3" x="300.78" y="231.52" width="17.16" height="7.12"/><polygon class="cls-3" points="231.56 243.52 279.44 236.02 231.67 227.88 224.16 180 216.03 227.78 168.14 235.28 215.92 243.41 223.42 291.3 231.56 243.52"/><polygon class="cls-1" points="212.43 228 254.13 176.72 234.44 239.75 212.43 228"/><polygon class="cls-8" points="212.08 228.65 192.63 291.81 234.09 240.41 212.08 228.65"/><path class="cls-3" d="M210.18,229.18a14.81,14.81,0,1,0,20-6.08A14.83,14.83,0,0,0,210.18,229.18Z"/><path class="cls-7" d="M232.71,241.22a10.74,10.74,0,1,0-14.53,4.41A10.74,10.74,0,0,0,232.71,241.22Z"/><path class="cls-9" d="M220,172.06v-9.61h1.88l3.95,6.45v-6.45h1.79v9.61h-1.94l-3.88-6.3v6.3Z"/><path class="cls-3" d="M161.38,238.54l-9.61,2.26v-2l6.59-1.43-6.59-1.75v-2.31l6.71-1.69-6.71-1.46v-1.95l9.61,2.31v2.07l-7.19,1.91,7.19,1.91Z"/><path class="cls-3" d="M288.1,230.85h9.61V238h-1.63V232.8H294v4.81h-1.63V232.8h-2.6v5.36H288.1Z"/><path class="cls-10" d="M471,323a89.8,89.8,0,0,0-168.75-61.2,75.8,75.8,0,0,0-116.51,63.75c-29.23,10.56-50.85,38.47-50.85,71.34,0,41.64,32.62,75.42,74.4,75.87v-.19H453.84A75.75,75.75,0,0,0,471,323Z"/><path class="cls-11" d="M302.24,261.76a75.8,75.8,0,0,0-116.51,63.75c-29.23,10.56-50.85,38.47-50.85,71.34A76.31,76.31,0,0,0,149,441.15a78.72,78.72,0,0,1-6.14-30.56c0-33.43,23-61.82,52.75-72.56a77.24,77.24,0,0,1,118.68-64.86,91.53,91.53,0,0,1,131.32-44.76,89.66,89.66,0,0,0-143.32,33.35Z"/><path class="cls-11" d="M370.23,346.42a53.29,53.29,0,0,0-81.91,44.82c-20.55,7.42-35.75,27-35.75,50.15a53.7,53.7,0,0,0,9.88,31.15,55.51,55.51,0,0,1-4.31-21.49c0-23.5,16.15-43.47,37.08-51a54.31,54.31,0,0,1,83.45-45.59A64.34,64.34,0,0,1,471,323a63,63,0,0,0-100.76,23.45Z"/></g></g></svg>